<svg width="377" height="377" viewBox="0 0 377 377" xmlns="http://www.w3.org/2000/svg"><g fill-rule="nonzero" fill="none"><circle fill="#535461" cx="188.5" cy="188.5" r="188.5"/><path d="M288 283.07c0 29.783-46.824 2.544-97.025 2.544-50.2 0-100.975 26.114-100.975-3.67 0-16.983 16.183-40.602 39.4-57.756C146.89 211.259 168.37 202 189.947 202c22.189 0 43.925 10.024 61.264 23.784C273.095 243.134 288 266.447 288 283.07z" fill="#151313"/><path d="M251 226c-26.727-4.055-75.065-8.998-122-1.61 17.52-13.047 39.033-22.39 60.645-22.39 22.218 0 43.989 10.115 61.355 24z" fill="#F6F8FB"/><path d="M121.306 163.855c3.605-.203 20.575-1.483 31.354-7.642a12.199 12.199 0 0 1 5.693-1.68c3.427-.099 7.37 1.335 4.846 9.36-4.09 13.125-27.84 27.893-42.58 27.074-14.176-.787-30.992-6.51-42.096-26.632a12.326 12.326 0 0 1-1.517-6.332c.13-4.06 1.603-9.15 9.213-3.476 10.281 7.66 29.787 9.113 33.7 9.328.462.025.925.025 1.387 0zM257.306 163.855c3.605-.203 20.575-1.483 31.354-7.642a12.199 12.199 0 0 1 5.693-1.68c3.427-.099 7.37 1.335 4.846 9.36-4.09 13.125-27.84 27.893-42.58 27.074-14.176-.787-30.992-6.51-42.096-26.632a12.326 12.326 0 0 1-1.517-6.332c.13-4.06 1.603-9.15 9.213-3.476 10.281 7.66 29.787 9.113 33.7 9.328.462.025.925.025 1.387 0z" fill="#151313"/></g></svg>
