<svg aria-hidden="true" focusable="false" className="hide-xs hide-sm" width="227" height="20" viewBox="0 0 227 20" xmlns="http://www.w3.org/2000/svg"><path d="M13.928 6.952C12.84 5.624 11.496 4.96 9.896 4.96c-.704 0-1.356.128-1.956.384a4.76 4.76 0 0 0-1.548 1.044c-.432.44-.772.964-1.02 1.572A5.16 5.16 0 0 0 5 9.928c0 .72.124 1.384.372 1.992a4.846 4.846 0 0 0 1.032 1.584c.44.448.956.8 1.548 1.056a4.785 4.785 0 0 0 1.92.384c1.504 0 2.856-.64 4.056-1.92v5.568l-.48.168c-.72.256-1.392.444-2.016.564a9.77 9.77 0 0 1-1.848.18 9.317 9.317 0 0 1-3.588-.708 9.382 9.382 0 0 1-3.024-1.992 9.91 9.91 0 0 1-2.1-3.048C.344 12.58.08 11.296.08 9.904s.26-2.668.78-3.828a9.527 9.527 0 0 1 2.088-3 9.549 9.549 0 0 1 3.036-1.968A9.467 9.467 0 0 1 9.608.4c.72 0 1.428.076 2.124.228.696.152 1.428.388 2.196.708v5.616zm7.099 2.04h.888c.928 0 1.64-.192 2.136-.576.496-.384.744-.936.744-1.656 0-.72-.248-1.272-.744-1.656-.496-.384-1.208-.576-2.136-.576h-.888v4.464zM31.37 19h-5.856l-4.488-6.96V19h-4.704V.904h7.32c1.008 0 1.888.148 2.64.444.752.296 1.372.7 1.86 1.212a5.11 5.11 0 0 1 1.104 1.776 6.19 6.19 0 0 1 .372 2.16c0 1.376-.332 2.492-.996 3.348-.664.856-1.644 1.436-2.94 1.74L31.37 19zM37.46.904V19h-4.703V.904h4.704zm13.147 4.632c-.512-.416-1.024-.724-1.536-.924-.512-.2-1.008-.3-1.488-.3-.608 0-1.104.144-1.488.432-.384.288-.576.664-.576 1.128 0 .32.096.584.288.792.192.208.444.388.756.54a6.47 6.47 0 0 0 1.056.396c.392.112.78.232 1.164.36 1.536.512 2.66 1.196 3.372 2.052.712.856 1.068 1.972 1.068 3.348 0 .928-.156 1.768-.468 2.52a5.258 5.258 0 0 1-1.368 1.932c-.6.536-1.336.952-2.208 1.248-.872.296-1.86.444-2.964.444-2.288 0-4.408-.68-6.36-2.04l2.016-3.792c.704.624 1.4 1.088 2.088 1.392.688.304 1.368.456 2.04.456.768 0 1.34-.176 1.716-.528.376-.352.564-.752.564-1.2a1.62 1.62 0 0 0-.144-.708 1.533 1.533 0 0 0-.48-.552 3.847 3.847 0 0 0-.876-.468c-.36-.144-.796-.304-1.308-.48a26.26 26.26 0 0 1-1.788-.636 5.626 5.626 0 0 1-1.56-.924 4.294 4.294 0 0 1-1.104-1.452c-.28-.584-.42-1.324-.42-2.22 0-.896.148-1.708.444-2.436a5.413 5.413 0 0 1 1.248-1.872c.536-.52 1.192-.924 1.968-1.212C45.036.544 45.904.4 46.864.4c.896 0 1.832.124 2.808.372.976.248 1.912.612 2.808 1.092l-1.872 3.672zm11.971-.648V19h-4.704V4.888h-3.864V.904h12.432v3.984H62.58zM72.654.904V19H67.95V.904h4.704zm13.05 11.376l-2.111-6.024-2.112 6.024h4.224zm1.249 3.576h-6.72L79.153 19h-5.016L81.025.904h5.136L93.049 19h-5.016l-1.08-3.144zM94.532 19V.904h4.704l8.688 11.064V.904h4.68V19h-4.68L99.236 7.936V19h-4.704zm37.67-10.128h9.335c0 .96-.04 1.832-.12 2.616a9.272 9.272 0 0 1-.48 2.184 8.716 8.716 0 0 1-1.368 2.508 8.002 8.002 0 0 1-2.028 1.824 9.532 9.532 0 0 1-2.556 1.116c-.928.256-1.904.384-2.928.384-1.408 0-2.692-.232-3.852-.696a8.693 8.693 0 0 1-2.988-1.956c-.832-.84-1.48-1.848-1.944-3.024-.464-1.176-.696-2.476-.696-3.9 0-1.408.228-2.7.684-3.876.456-1.176 1.104-2.18 1.944-3.012.84-.832 1.852-1.48 3.036-1.944 1.184-.464 2.504-.696 3.96-.696 1.888 0 3.544.408 4.968 1.224 1.424.816 2.552 2.08 3.384 3.792l-4.464 1.848c-.416-.992-.956-1.704-1.62-2.136-.664-.432-1.42-.648-2.268-.648-.704 0-1.344.132-1.92.396a4.16 4.16 0 0 0-1.476 1.128c-.408.488-.728 1.076-.96 1.764-.232.688-.348 1.456-.348 2.304 0 .768.1 1.48.3 2.136.2.656.5 1.224.9 1.704s.896.852 1.488 1.116c.592.264 1.28.396 2.064.396.464 0 .912-.052 1.344-.156.432-.104.82-.272 1.164-.504.344-.232.628-.532.852-.9.224-.368.376-.816.456-1.344h-3.864V8.872zM148.635.904v9.84c0 .528.02 1.068.06 1.62.04.552.16 1.052.36 1.5.2.448.516.812.948 1.092.432.28 1.04.42 1.824.42s1.388-.14 1.812-.42c.424-.28.74-.644.948-1.092.208-.448.332-.948.372-1.5.04-.552.06-1.092.06-1.62V.904h4.68v10.488c0 2.816-.644 4.872-1.932 6.168-1.288 1.296-3.268 1.944-5.94 1.944-2.672 0-4.656-.648-5.952-1.944-1.296-1.296-1.944-3.352-1.944-6.168V.904h4.704zm24.57 3.984h-5.591v3.024h5.28v3.984h-5.28v3.12h5.592V19H162.91V.904h10.296v3.984zm7.508 4.104h.888c.928 0 1.64-.192 2.136-.576.496-.384.744-.936.744-1.656 0-.72-.248-1.272-.744-1.656-.496-.384-1.208-.576-2.136-.576h-.888v4.464zM191.058 19h-5.856l-4.488-6.96V19h-4.704V.904h7.32c1.008 0 1.888.148 2.64.444.752.296 1.372.7 1.86 1.212a5.11 5.11 0 0 1 1.104 1.776 6.19 6.19 0 0 1 .372 2.16c0 1.376-.332 2.492-.996 3.348-.664.856-1.644 1.436-2.94 1.74L191.058 19zm6.09-10.008h.888c.928 0 1.64-.192 2.136-.576.496-.384.744-.936.744-1.656 0-.72-.248-1.272-.744-1.656-.496-.384-1.208-.576-2.136-.576h-.888v4.464zM207.492 19h-5.856l-4.488-6.96V19h-4.704V.904h7.32c1.008 0 1.888.148 2.64.444.752.296 1.372.7 1.86 1.212a5.11 5.11 0 0 1 1.104 1.776 6.19 6.19 0 0 1 .372 2.16c0 1.376-.332 2.492-.996 3.348-.664.856-1.644 1.436-2.94 1.74L207.492 19zm11.227-6.72l-2.112-6.024-2.112 6.024h4.224zm1.248 3.576h-6.72L212.167 19h-5.016L214.04.904h5.136L226.063 19h-5.016l-1.08-3.144z" fill="#FFF" fill-rule="nonzero"/></svg>
