<?xml version="1.0" encoding="UTF-8"?><svg viewBox="0 0 107 78" xmlns="http://www.w3.org/2000/svg"><path d="M21.422 62.444c-3.04 0-5.795-2.488-5.795-5.51 0-3.023 2.489-5.525 5.8-5.525 3.324 0 5.822 2.489 5.822 5.52 0 3.031-2.765 5.511-5.8 5.511l-.027.004zm71.165-30.057c-.6-4.41-3.334-8-6.934-10.756l-1.4-1.111-1.129 1.378c-2.195 2.489-3.066 6.902-2.8 10.2.267 2.498 1.067 4.978 2.463 6.906-1.13.578-2.525 1.112-3.6 1.676-2.534.831-4.996 1.111-7.467 1.111H.431l-.267 1.645c-.533 5.253.267 10.755 2.498 15.733l1.085 1.933v.267c6.666 11.035 18.533 16 31.457 16 24.863 0 45.254-10.756 54.92-33.925 6.334.276 12.73-1.377 15.734-7.448l.8-1.378-1.334-.831c-3.6-2.196-8.533-2.49-12.666-1.378l-.08.009.009-.031zm-35.591-4.41H46.204v10.756h10.8V27.97l-.008.013v-.004zm0-13.524H46.204V25.21h10.8V14.467l-.008-.014zm0-13.795H46.204v10.755h10.8V.658h-.008zm13.2 27.32h-10.73v10.755h10.756V27.97l-.03.013.004-.004zm-39.992 0H19.48v10.755h10.764V27.97l-.044.013.004-.004zm13.467 0H33.004v10.755h10.73V27.97l-.067.013.004-.004zm-26.8 0H6.222v10.755h10.791V27.97l-.133.013-.009-.004zm26.8-13.525H33.004V25.21h10.73V14.467l-.067-.014h.004zm-13.533 0h-10.64V25.21h10.724V14.467l-.07-.014h-.014z"/></svg>
