<svg width="56" height="56" viewBox="0 0 56 56" xmlns="http://www.w3.org/2000/svg"><path d="M39.174 2.337l-.003-.001A27.599 27.599 0 0 0 28 0C20.296 0 13.035 3.173 7.759 8.71 7.307 7.582 7 6.483 7 5.834c0-.476-.29-.903-.73-1.082a1.176 1.176 0 0 0-1.277.272c-3.068 3.184-3.195 7.232-1.744 9.9A28.055 28.055 0 0 0 0 28c0 15.439 12.56 28 28 28s28-12.561 28-28A27.974 27.974 0 0 0 39.174 2.337zM28 2.333c3.52 0 6.92.709 10.116 2.094 4.481 3.15 7.214 11.602 7.377 18.283a15.248 15.248 0 0 0-4.382-5.142 1.167 1.167 0 0 0-1.636 1.63A12.755 12.755 0 0 1 42 26.833c0 7.077-5.758 12.834-12.833 12.834-1.657 0-2.783-.176-3.824-.605 1.4-.528 2.636-1.322 3.785-2.058C30.734 35.973 32.252 35 33.833 35a1.166 1.166 0 0 0 1.133-1.45c-.278-1.112-1.604-3.217-4.633-3.217-1.677 0-2.417.662-3.012 1.193-.629.56-1.278 1.14-3.988 1.14-4.776 0-7-2.784-7-4.666 0-.567.372-1.2 1.021-1.734.816-.671 1.65-.86 1.654-.941a1.166 1.166 0 0 0 1.65 0c.818-.817.77-1.905.579-2.691l6.243-4.163a1.167 1.167 0 0 0-.647-2.138H24.5c-2.598 0-4.295-.504-4.66-1.384-.533-1.287 1.226-4.03 3.152-5.957A1.165 1.165 0 0 0 22.167 7c-3.79 0-6.292 2.99-7.497 4.56-1.524-.177-4.113-.098-5.277.077-.104-.104-.286-.323-.527-.698C13.739 5.475 20.653 2.333 28 2.333zm0 51.334C13.847 53.667 2.333 42.153 2.333 28c0-4.374 1.135-8.711 3.282-12.544.218-.39.193-.873-.064-1.24-.8-1.139-1.32-3.304-.299-5.526.32.932.73 1.866 1.14 2.643.752 1.4 1.79 2.956 3.208 2.636.966-.225 4.516-.228 5.06-.084.495.233 1.09.097 1.43-.337l.218-.286c.506-.668 1.297-1.713 2.35-2.557-.976 1.611-1.652 3.501-.973 5.137.68 1.645 2.445 2.56 5.37 2.775l-3.869 2.579c-.494.33-.66.976-.39 1.505.058.113.114.263.155.414-.44.026-.925.144-1.433.356C15.766 24.196 14 25.877 14 28c0 3.44 3.49 7 9.333 7 3.325 0 4.519-.82 5.54-1.733.476-.425.674-.6 1.46-.6.625 0 1.09.138 1.434.329-1.395.439-2.662 1.25-3.9 2.044-1.838 1.18-3.574 2.293-5.7 2.293a1.166 1.166 0 0 0-.695 2.105C24.126 41.402 25.922 42 29.167 42c8.362 0 15.166-6.804 15.166-15.167 0-.31-.009-.618-.027-.925.276.875.46 1.783.545 2.71a1.169 1.169 0 0 0 1.068 1.058c.613.057 1.083-.324 1.224-.872a21.92 21.92 0 0 0 .69-5.47c0-4.855-1.31-10.813-3.803-15.374A25.643 25.643 0 0 1 53.667 28c0 14.153-11.514 25.667-25.667 25.667z" fill-rule="nonzero"/></svg>
