<?xml version="1.0" encoding="UTF-8"?><svg viewBox="0 0 72 79" xmlns="http://www.w3.org/2000/svg"><path d="M23.125 66.146c0-2.88-2.376-4.32-7.128-4.32-4.551 0-6.826 1.498-6.826 4.493 0 2.91 2.476 4.364 7.43 4.364 4.35 0 6.524-1.512 6.524-4.537zm-2.549-32.618c0-1.757-.432-3.226-1.296-4.406-.864-1.181-2.146-1.772-3.845-1.772-3.572 0-5.357 2.088-5.357 6.265 0 3.888 1.785 5.832 5.357 5.832 3.427 0 5.141-1.973 5.141-5.919zm11.622-13.997v8.726a38.149 38.149 0 0 1-3.413.95c.46 1.24.69 2.45.69 3.63 0 3.658-1.05 6.776-3.153 9.353-2.103 2.578-4.94 4.198-8.51 4.86-1.153.231-2.01.62-2.572 1.167-.561.547-.842 1.383-.842 2.506 0 .893.324 1.634.972 2.225.648.59 1.483 1.051 2.506 1.382a47.36 47.36 0 0 0 3.391.95c1.239.303 2.477.67 3.716 1.102 1.238.433 2.369.973 3.391 1.62 1.023.649 1.858 1.57 2.506 2.766.648 1.195.972 2.613.972 4.255 0 8.756-5.228 13.134-15.683 13.134-1.987 0-3.86-.18-5.616-.54a19.23 19.23 0 0 1-5.012-1.772 9.42 9.42 0 0 1-3.78-3.542C.825 70.762.357 68.926.357 66.794c0-4.752 2.621-7.992 7.863-9.72V56.9c-1.93-1.181-2.895-2.995-2.895-5.444 0-3.139.908-5.112 2.722-5.918v-.173c-2.073-.691-3.794-2.254-5.162-4.688C1.516 38.244.832 35.86.832 33.527c0-4.003 1.368-7.337 4.105-10.001 2.736-2.664 6.12-3.996 10.152-3.996 2.765 0 5.329.676 7.69 2.03 2.823 0 5.962-.677 9.419-2.03zm13.738 38.061h-9.591c.115-1.296.173-3.226.173-5.789v-26.31c0-2.708-.058-4.551-.173-5.53h9.591c-.115.95-.173 2.736-.173 5.357v26.483c0 2.563.058 4.493.173 5.79zm25.965-9.59v8.467c-2.045 1.123-4.55 1.685-7.517 1.685-1.786 0-3.327-.288-4.623-.864-1.296-.576-2.304-1.296-3.024-2.16-.72-.864-1.29-1.988-1.707-3.37-.417-1.383-.684-2.708-.799-3.975-.115-1.267-.173-2.75-.173-4.45V28.171h.087v-.173c-.202 0-.476-.014-.821-.043a10.255 10.255 0 0 0-.778-.043c-.605 0-1.454.086-2.549.26v-8.21h4.148V16.68c0-1.555-.087-2.837-.26-3.845h9.807c-.172 1.181-.259 3.557-.259 7.129h7.388v8.208a29.42 29.42 0 0 1-1.88-.086 28.846 28.846 0 0 0-1.836-.087h-3.672v15.77c0 3.772 1.253 5.659 3.759 5.659 1.757 0 3.326-.475 4.709-1.426zM47.016 7.087c0 1.67-.562 3.132-1.685 4.385-1.123 1.253-2.506 1.88-4.147 1.88-1.67 0-3.082-.627-4.234-1.88-1.152-1.253-1.728-2.714-1.728-4.385 0-1.7.569-3.182 1.706-4.45 1.138-1.267 2.556-1.9 4.256-1.9 1.67 0 3.06.64 4.169 1.922 1.109 1.282 1.663 2.758 1.663 4.428z"/></svg>
