<svg width="26" height="26" viewBox="0 0 26 26" xmlns="http://www.w3.org/2000/svg"><path d="M25.714 13.669c0 2.8-.817 5.32-2.452 7.558-1.635 2.238-3.747 3.786-6.337 4.646-.301.056-.522.017-.661-.117a.667.667 0 0 1-.21-.503v-3.532c0-1.083-.29-1.875-.87-2.377a11.466 11.466 0 0 0 1.716-.302 6.838 6.838 0 0 0 1.574-.652 4.68 4.68 0 0 0 1.356-1.114c.363-.44.658-1.027.887-1.758.229-.73.343-1.57.343-2.52 0-1.35-.44-2.5-1.322-3.448.413-1.015.368-2.154-.134-3.415-.313-.1-.765-.039-1.356.184a9.017 9.017 0 0 0-1.54.737l-.637.402a11.882 11.882 0 0 0-3.214-.436c-1.105 0-2.176.145-3.214.436a14.855 14.855 0 0 0-.712-.452c-.295-.179-.761-.394-1.398-.645-.636-.251-1.116-.326-1.44-.226-.49 1.261-.53 2.4-.116 3.415-.882.949-1.323 2.098-1.323 3.449 0 .949.114 1.786.343 2.511.229.725.522 1.311.88 1.758.356.446.805.82 1.347 1.122a6.838 6.838 0 0 0 1.573.652c.508.134 1.08.235 1.716.302-.446.402-.72.976-.82 1.724a3.32 3.32 0 0 1-.753.251 4.738 4.738 0 0 1-.955.084c-.368 0-.733-.12-1.096-.36-.363-.24-.672-.589-.93-1.046a2.7 2.7 0 0 0-.811-.87c-.33-.224-.606-.358-.829-.403l-.335-.05c-.234 0-.396.025-.485.075-.09.05-.117.115-.084.193a.922.922 0 0 0 .15.234c.068.078.14.145.218.201l.118.084c.245.112.488.324.728.636.24.313.416.597.527.854l.168.385c.145.424.39.767.736 1.03.346.262.72.43 1.122.502.402.072.79.111 1.163.117.374.006.684-.014.93-.059l.385-.067c0 .424.002.921.008 1.49l.008.904c0 .201-.072.369-.217.503-.145.134-.369.173-.67.117-2.59-.86-4.701-2.408-6.336-4.646C.818 18.99 0 16.47 0 13.67c0-2.333.575-4.484 1.724-6.454a12.8 12.8 0 0 1 4.68-4.68c1.97-1.149 4.12-1.724 6.453-1.724s4.484.575 6.454 1.725a12.8 12.8 0 0 1 4.679 4.679c1.15 1.97 1.724 4.12 1.724 6.454z" fill-rule="nonzero"/></svg>
