<?xml version="1.0" encoding="UTF-8"?><svg viewBox="0 0 72 80" xmlns="http://www.w3.org/2000/svg"><path d="M42.503 9.17l16.45 9.5a7.147 7.147 0 0 1 11.364 1.333 7.153 7.153 0 0 1-4.514 10.504v18.996a7.105 7.105 0 0 1 5.267 8.564 7.114 7.114 0 0 1-.773 1.936 7.144 7.144 0 0 1-9.757 2.607 7.095 7.095 0 0 1-1.753-1.43l-16.35 9.44a7.136 7.136 0 0 1-6.77 9.38 7.126 7.126 0 0 1-6.84-9.15l-16.454-9.49a7.133 7.133 0 0 1-10.086.233 7.138 7.138 0 0 1 3.246-12.096L5.537 30.5a7.137 7.137 0 0 1-5.27-8.613c.156-.66.41-1.297.746-1.887a7.142 7.142 0 0 1 9.757-2.607c.59.337 1.13.76 1.6 1.257l16.46-9.5A7.125 7.125 0 0 1 35.667 0 7.122 7.122 0 0 1 42.8 7.113c.003.697-.1 1.394-.297 2.057zm-1.716 2.923c-.064.07-.124.13-.194.194l21.537 37.3c.087-.03.187-.054.273-.077V30.487c-3.816-.944-6.14-4.807-5.193-8.627.02-.08.04-.163.063-.24l-16.486-9.527zm-10.05.197l-.2-.2-16.487 9.507a7.12 7.12 0 0 1-4.87 8.816c-.087.027-.17.047-.253.07V49.51l.28.077 21.536-37.3-.006.003zm6.92 1.69a7.188 7.188 0 0 1-3.974 0L12.15 51.277a7.232 7.232 0 0 1 2 3.47h43.037a7.17 7.17 0 0 1 2.01-3.48L37.657 13.98zm3.286 54.09l16.377-9.46a5.826 5.826 0 0 1-.127-.473H14.14l-.07.276 16.463 9.507a7.085 7.085 0 0 1 5.134-2.177 7.13 7.13 0 0 1 5.276 2.327z" /></svg>
