<?xml version="1.0" encoding="UTF-8"?><svg viewBox="0 0 60 80" xmlns="http://www.w3.org/2000/svg"><path d="M9.248 29.676c-.172 1.56.81 2.979.81 2.979.11-1.17.344-1.996.624-2.589.063 1.607.5 3.665 1.996 5.318 1.076 1.185 5.552 3.634 8.562.951.156.375.327.827.468 1.326.452 1.606-.421 3.945-.421 3.945s2.354-2.666 2.167-5.068c1.684-.078 3.337-1.31 3.29-3.04 0 0-2.947 1.62-5.535-1.373-1.513-1.747-6.379-6.55-12.96-4.96.671.157 1.388.375 2.106.64h-.016c-.655.312-1.013 1.107-1.091 1.871zm4.413-.28c3.04 1.715 5.832 4.008 7.002 5.77-.89.514-3.384 1.622-5.926-.265-1.606-1.186-1.528-4.086-1.076-5.505zM26.01 65.84c.344.359.235.827.141 1.06-.171.422-.858 1.81-2.027 3.088-.421.453-1.03.718-1.716.718-.67 0-1.356-.25-1.84-.67-.358-.328-1.59-1.482-2.136-2.901-.203-.53-.156-.952.14-1.264.203-.202.624-.452 1.482-.452h4.584c.64 0 1.092.14 1.373.421zm9.81-29.302c-.187 2.417 2.167 5.068 2.167 5.068s-.873-2.339-.42-3.945c.14-.5.311-.936.467-1.326 3.01 2.698 7.485.234 8.546-.951 1.497-1.653 1.918-3.711 1.996-5.318.28.593.53 1.42.624 2.589 0 0 .998-1.42.81-2.979-.093-.78-.452-1.559-1.09-1.84h-.017a13.38 13.38 0 0 1 2.106-.64c-6.597-1.59-11.447 3.213-12.96 4.96-2.604 2.994-5.535 1.372-5.535 1.372-.032 1.7 1.621 2.948 3.306 3.01zm2.775-1.372c1.17-1.778 3.962-4.055 7.002-5.77.468 1.419.53 4.32-1.091 5.52-2.542 1.887-5.022.78-5.91.25-.016.015 0 0 0 0zm2.106 30.705c.296.297.343.718.14 1.232-.546 1.388-1.778 2.511-2.136 2.823a2.91 2.91 0 0 1-1.84.655c-.687 0-1.295-.25-1.716-.702-1.17-1.247-1.871-2.604-2.027-3.01-.094-.234-.203-.686.14-1.044.265-.281.733-.421 1.388-.421h4.585c.842.015 1.263.265 1.466.467zm-15.33-39.22c1.544.936 2.932 1.263 4.258 1.294 1.325-.03 2.713-.358 4.257-1.294 0 0-2.261 2.76-4.242 2.776h-.031c-1.98-.031-4.242-2.776-4.242-2.776zm28.772 22.986c-.374 2.792-2.027 5.271-3.836 6.815-.483-3.54-.577-8.655-.577-9.73 0-2.293 1.481-3.821 1.903-4.07.39-.235.842-.469 1.294-.718 2.807-1.497 6.3-3.369 6.3-6.815 0-2.526-1.45-3.618-2.401-4.335-.125-.094-.234-.172-.344-.265-.327-.266-.577-.468-.67-.687-.686-1.528-.562-5.333-.265-5.863.093-.094 2.604-3.26 1.84-6.113-.312-1.154-1.076-2.074-2.199-2.651-.826-.421-1.856-.655-3.04-.702-.016-.312-.079-.608-.141-.92-.094-.406-.172-.827-.14-1.263.062-.733.124-1.404.343-1.762 1.31-2.075 4.49-2.745 4.522-2.745l1.918-.374-1.263-1.482c-.016-.031-2.698-2.729-7.22-2.729-1.232 0-2.495.203-3.759.608-3.774 1.217-6.69 4.757-7.703 6.129a20.962 20.962 0 0 0-1.497-.421c-.655-2.464 1.403-6.004 1.403-6.004s-2.12-.468-5.255 2.37c-.406-1.013-1.263-3.197-.281-5.8-4.6 1.621-5.754 4.1-6.097 6.346-1.186-.842-1.045-3.602-1.123-4.304-1.17.14-4.554 3.415-4.398 7.532-.312.078-.608.172-.92.265-1.014-1.372-3.914-4.912-7.704-6.128-1.232-.343-2.495-.546-3.727-.546-4.522 0-7.189 2.698-7.22 2.729L.624 7.47l1.918.374c.031 0 3.212.67 4.522 2.745.219.343.281 1.029.343 1.762.032.437-.062.858-.14 1.263a5.95 5.95 0 0 0-.14.92c-1.201.047-2.215.28-3.041.702-1.123.577-1.887 1.497-2.2 2.65-.779 2.84 1.748 6.005 1.841 6.114.296.53.421 4.335-.265 5.864-.094.218-.343.42-.67.686-.11.078-.219.171-.344.265-.95.717-2.401 1.824-2.401 4.335 0 3.446 3.493 5.318 6.3 6.815.468.25.904.483 1.294.717.421.25 1.903 1.778 1.903 4.07 0 1.076-.094 6.191-.577 9.731-1.81-1.543-3.462-4.039-3.836-6.83 0 0-4.554 3.524-3.213 11.041.811 4.6 3.618 7.189 7.33 8.53 1.372 2.979 4.584 7.127 10.495 7.735C21.988 78.8 25.107 80 29.66 80h.031c4.538 0 7.657-1.2 9.918-3.04 5.91-.61 9.123-4.757 10.495-7.736 3.712-1.357 6.503-3.93 7.33-8.53 1.278-7.548-3.29-11.057-3.29-11.057zM47.361 6.035a9.038 9.038 0 0 1 2.76-.421c1.715 0 3.103.468 3.852.78-.484.218-.998.499-1.513.826a8.76 8.76 0 0 0-1.435-.124c-1.637 0-3.197.483-4.475 1.387-1.918 1.357-2.807 2.636-3.228 3.494a12.18 12.18 0 0 0-1.108-.577c-.25-.125-.483-.234-.733-.343.952-1.42 3.104-4.133 5.88-5.022zm3.274 2.838a5.864 5.864 0 0 0-.358.5c-.515.81-.608 1.808-.686 2.775-.078.998-.172 1.95-.687 2.651a19.29 19.29 0 0 0-1.793.421 10.57 10.57 0 0 0-1.637-1.746c.218-.749.857-2.511 2.105-3.51a5.277 5.277 0 0 1 3.056-1.09zM6.8 7.22a9.158 9.158 0 0 0-1.512-.826 10.15 10.15 0 0 1 3.851-.78c.952 0 1.872.14 2.76.421 2.776.905 4.929 3.618 5.88 5.006-.25.11-.5.218-.749.343-.39.187-.764.39-1.107.577-.405-.842-1.294-2.136-3.228-3.493C11.4 7.563 9.856 7.08 8.203 7.08c-.53.016-1.03.078-1.404.14zm6.971 6.254c-.764.655-1.294 1.247-1.637 1.746-.53-.14-1.139-.296-1.794-.42-.514-.687-.592-1.638-.67-2.636-.078-.967-.172-1.965-.687-2.776a5.788 5.788 0 0 0-.358-.5c1.154.048 2.183.406 3.04 1.093 1.248.982 1.888 2.744 2.106 3.493zM8.749 40.686c-.422-.25-.874-.483-1.31-.717-2.324-1.248-4.71-2.542-4.71-4.757 0-1.73.67-2.276 1.388-2.838l.078-.062c.11-.094.218-.187.343-.28-.14 1.122-.296 2.073-.421 2.323 0 0 1.887-2.34 2.448-6.909.219-1.793-.171-5.349-.795-6.705.031.764 0 1.528-.047 2.245a1.81 1.81 0 0 0-.203-.343c-.499-.624-1.84-2.729-1.465-4.148.14-.546.483-.936 1.044-1.216.593-.297 1.373-.452 2.355-.452 1.918 0 4.04.577 5.13.935 3.915 1.248 8.64 4.819 9.997 5.88a.27.27 0 0 0 .062.046l.874.608-.546-.904c-.031-.047-2.979-4.897-8.297-7.252.312-.452 1.154-1.263 3.369-2.354 3.337-1.638 7.251-2.464 11.587-2.464 4.35 0 8.25.826 11.586 2.464 2.215 1.076 3.057 1.902 3.369 2.354-5.302 2.355-8.25 7.205-8.28 7.252l-.547.904.874-.608s.03-.015.062-.047c1.357-1.06 6.082-4.647 9.996-5.879 1.092-.343 3.213-.935 5.13-.935.983 0 1.763.155 2.355.452.546.28.89.686 1.045 1.216.39 1.42-.951 3.524-1.466 4.148-.078.094-.14.203-.202.343a21.316 21.316 0 0 1-.047-2.245c-.624 1.372-1.014 4.912-.795 6.705.561 4.57 2.448 6.909 2.448 6.909-.125-.25-.28-1.201-.421-2.324.109.094.234.187.343.28l.078.063c.717.577 1.388 1.107 1.388 2.838 0 2.215-2.402 3.51-4.71 4.757-.452.234-.889.483-1.31.717-1.356.78-2.807 2.604-2.978 5.333-.14 2.277.14 7.782.53 11.837-1.934.748-4.164.998-6.191 1.06a18.67 18.67 0 0 1-.858-2.043c-.109-.312-3.056-7.969-4.117-9.7.858 6.082 2.73 11.494 3.665 13.973a12.893 12.893 0 0 0-1.825-.109H20.507c-.686 0-1.295.047-1.825.11.936-2.48 2.823-7.892 3.665-13.974-1.06 1.747-4.008 9.404-4.117 9.7a18.67 18.67 0 0 1-.858 2.043c-2.027-.062-4.241-.312-6.19-1.06.39-4.055.67-9.544.53-11.837-.14-2.713-1.607-4.553-2.963-5.333zM5.115 63.251c-1.887-3.118-1.357-8.436-.577-9.216 1.7 5.365 7.36 6.908 11.602 7.08-.42.655-.81 1.185-1.091 1.56l-.219.218c-1.122 1.216-1.34 2.885-.639 4.959-3.54-.016-7.22-1.528-9.076-4.6zm7.127 6.784c.935.172 1.902.296 2.9.374.546 1.248 1.154 2.48 1.918 3.603-2.245-.92-3.805-2.495-4.818-3.977zm17.388 7.813c-9.45-.016-12.21-7.142-13.24-10.09-.577-1.637-.53-2.838.14-3.602.452-.515 1.482-1.123 3.836-1.123h18.527c2.355 0 3.4.608 3.836 1.123.655.748.702 1.965.14 3.602-1.029 2.932-3.79 10.074-13.24 10.09zm12.569-3.836c.764-1.123 1.372-2.355 1.918-3.603a28.305 28.305 0 0 0 2.9-.374c-1.013 1.482-2.573 3.057-4.818 3.977zm11.945-10.76c-1.871 3.072-5.551 4.569-9.06 4.631.702-2.074.483-3.758-.64-4.959a2.994 2.994 0 0 0-.218-.234c-.28-.374-.67-.904-1.091-1.56 4.241-.187 9.902-1.715 11.602-7.08.78.78 1.31 6.098-.593 9.201z"/></svg>
