<?xml version="1.0" encoding="UTF-8"?><svg viewBox="0 0 37 80" xmlns="http://www.w3.org/2000/svg"><path d="M30.906 61.11l-2.203 3.843-.719 12.531c0 1.391-4.422 2.516-9.859 2.516-5.438 0-9.86-1.125-9.86-2.516L7.36 65.078 5.031 61.11c6.438 2.703 19.688 2.61 25.875 0zM.281 21.53l2.125 19.61c.922-3.125 3.25-7.344 6.25-8.625.985-.422 1.985-.422 2.922.14.813.469 1.5 1.453 1.578 1.844.188 1.016-.312 1.422-.703 1.422-.469 0-.828-.719-1.062-1.14-.641-1.141-1.61-1.188-2.641-.438-1.078.781-2.016 2.093-2.672 3.234-.797 1.375-1.469 2.89-1.875 4.406-.234.875-.453 2.282-.094 3.11.157.343.391.562.766.562.781 0 1.922-1.031 2.469-1.578.703-.703 1.61-1.797 1.953-2.5l.812-2.422c.407-1.062 1.547-.875 1.547 0 0 1.594-.578 2.125-1.562 5.422-.906 3.047-1.188 4.031-1.188 4.031-.11.438-.531 1.172-.984 1.172-.188 0-.328-.062-.406-.187-.157-.219-.141-.828-.125-.985.03-.5.984-3.468 1.14-3.937-.312.344-.64.687-1 1.031-.843.797-2.203 1.844-3.36 1.844-.53 0-.874-.14-1.202-.375l1.187 12.437c.313.782 6.125 2.672 13.782 2.672 7.671 0 13.484-1.906 13.78-2.672l1.704-14.78c-.89.812-1.922 1.812-3.063 2.312-.843.359-2.718.593-2.718-.891 0-.813 1.422-2.313 2.25-3.36.218-.265.734-.921.734-1.265 0-.453-.938-.344-1.828.39-.5.422-.969.985-1.36 1.516-.671.938-1.03 1.75-1.328 2.422-.968 2.219-.64 1.344-1.422 3.438-.78 2.078-.656 1.843-.812 2.187-.14.297-.344.547-.625.703-.297.157-.703.14-.953-.047-.14-.093-.203-.297-.203-.578 0-.14.015-.281.047-.422.234-.953 1.218-2.828 2.343-5.359.25-.578.157-.406.125-.36-.968.938-1.703 1.391-2.25 1.641-.906.407-2.03.407-2.265-.64-.016-.063-.016-.125-.032-.188-1.843 1.438-3.796 1.828-3.125-1.266-.718 1.282-1.968 2.329-3.5 2.329-.64 0-1.109-.22-1.343-.797-.36-.86.203-2.328.719-3.719a28.45 28.45 0 0 1 1.109-2.531c.25-.532.656-.844 1.187-.703.094.03.172.062.25.109.407.281.25.703.047 1.125-.594 1.172-1.11 2.031-1.453 3.25-.14.516-.312 1.406.235 1.406.374 0 .734-.125 1.078-.375.718-.531 1.296-1.328 1.734-2.11.313-.562.688-1.296.875-1.921.078-.266.172-.516.281-.75.172-.39.407-.797.813-.797.203 0 .375.078.5.234.265.344.203.704.062 1.079-.312.875-.734 1.656-1.078 2.609-.203.547-.422 1.25-.422 1.828 0 .531.578.406 1.063.188.375-.172.75-.438 1.062-.703.188-.766.14-.594 4.125-10.657.203-.515.578-.734.953-.734.188 0 .344.062.5.172.266.203.266.64.157.968-.11.297-.094.204-.703 1.641-.813 1.89-1.344 3.25-2.063 4.984-.297.72-1.203 2.954-1.36 3.485-.093.344-.203.906.157.906.844 0 3.015-2.047 3.61-2.656.03-.047.077-.063.14-.094.094-.297.187-.578.265-.86.22-.593.422-1.28.829-1.765.125-.156.265-.25.422-.25.437 0 .656.188.656.625a5.3 5.3 0 0 1-.172.969c.219-.234.453-.469.703-.703 2.344-2.172 4.016-1.063 4.016.031 0 1.156-1.391 2.766-2.157 3.656-.25.297-.765.844-.78 1 0 .203.14.282.343.282.312 0 1-.547 1.25-.735.781-.61 1.844-1.547 2.594-2.203L35.953 21.5c-4.766 2.672-30.875 2.688-35.672.031zm35.89-1.328c0 3.281-36.124 3.281-36.124 0 0-1.375 8.094-2.484 18.062-2.484 1.407 0 2.782.015 4.11.062l1.968-7.61L33.767.095c.218-.219.906-.032 1.547.547.64.578 1.03 1.234.828 1.453l-.016.015-8.953 9.454-1.563 6.359c6.235.406 10.563 1.265 10.563 2.281zm-10.843.719c0-.125-.14-.235-.39-.328l-.032.125c0 .203-.781.375-1.734.375s-1.735-.172-1.735-.375c0-.016 0-.032.016-.047l.031-.11c-.28.094-.468.22-.468.36 0 .328.968.578 2.14.578 1.203.016 2.172-.25 2.172-.578z" /></svg>
