<?xml version="1.0" encoding="UTF-8"?><svg viewBox="0 0 66 80" xmlns="http://www.w3.org/2000/svg"><path d="M28.654 19.393c-.031-.218.295-.358.498-.451.264-.11.607-.156.856-.016.062.031.124.109.093.171-.062.187-.373.156-.545.25-.155.077-.28.264-.467.264-.155.015-.42-.062-.435-.218zm3.844-.047c.156.078.28.265.467.265.171 0 .436-.062.451-.234.031-.217-.295-.358-.498-.45-.264-.11-.607-.157-.856-.016-.062.03-.124.108-.093.17.047.203.358.172.53.265zm33.416 48.28c-.077 1.277-1.011 2.148-2.163 2.849-2.32 1.4-5.805 2.459-7.922 5.011l-.405-.342.405.342c-2.21 2.63-4.934 4.14-7.518 4.343-2.568.202-4.98-.98-6.272-3.58v-.016a4.944 4.944 0 0 1-.39-1.042c-3.345.186-6.256-.825-8.575-.638-3.424.186-5.572 1.011-7.518 1.027-.747 1.65-2.225 2.74-4.03 3.144-2.491.576-5.62 0-8.701-1.619l.249-.467-.25.467C9.947 75.58 6.289 75.72 3.596 75.16c-1.354-.28-2.537-.779-3.128-1.915C-.11 72.11 0 70.553.809 68.311c.265-.793.063-1.976-.124-3.237-.094-.607-.187-1.23-.187-1.837 0-.669.109-1.323.436-1.93.7-1.323 1.836-1.883 2.88-2.256 1.042-.374 1.991-.623 2.645-1.292.81-.856 1.572-2.241 2.584-3.144-.405-2.677.03-5.51.965-8.296 1.96-5.899 6.1-11.549 9.043-15.05 2.505-3.565 3.237-6.429 3.502-10.07.17-4.95-3.814-21.074 12.124-21.043C47.268.17 46.553 13.447 46.475 20.59c-.047 4.685 2.537 7.86 5.198 11.207 2.366 2.801 5.463 6.895 7.238 11.58 1.447 3.828 2.007 8.062.575 12.31.218.079.436.187.639.312.217.125.42.28.622.451 1.027.872 1.354 2.226 1.634 3.487.296 1.26.56 2.443 1.12 3.066 1.729 1.93 2.476 3.346 2.413 4.622zm-33.416-50.49c.56.14 1.385.374 2.023.685-.326-1.899.7-3.658 1.837-3.58 1.385.047 2.163 2.413 1.416 4.25-.124.295-.435.528-.607.715 1.043.358 1.712.638 1.961.763 1.23-1.479 1.681-4.078.67-6.288-1.526-3.33-5.323-3.393-6.849.062a6.2 6.2 0 0 0-.45 3.393zm-7.19 2.926c1.213-.887 1.073-.731.918-.856-1.245-1.074-1.028-4.264.28-4.373.98-.078 1.68 1.665 1.494 3.05a5.599 5.599 0 0 1 1.588-.716c.264-3.004-1.401-5.214-2.973-5.214-2.942 0-3.736 5.837-1.308 8.11zm-1.464 3.253c.234.763.95 1.634 2.288 2.381 1.214.716 1.868 1.79 3.113 2.335.405.171.887.296 1.494.327 2.864.171 4.218-1.759 5.946-2.32 1.82-.575 3.128-1.711 3.533-2.816.498-1.323-.327-2.288-1.634-2.833-1.76-.763-2.537-.81-3.518-1.447-1.603-1.028-2.926-1.386-4.031-1.386-2.241 0-3.61 1.526-4.342 2.21-.078.078-1.23.919-2.195 1.635-.654.513-.872 1.152-.654 1.914zM18.63 62.661l-3.05-5.54c-1.059-1.432-2.148-2.304-3.409-2.49-1.198-.187-1.96.217-2.755 1.073-.747.794-1.37 1.915-2.225 2.802-1.214 1.012-1.448.965-3.05 1.54-.981.343-1.76.717-2.304 1.76-.42.778-.327 1.898-.14 3.112.186 1.23.466 2.537.093 3.72v.031c-.778 2.133-.778 3.378-.405 4.11 1.23 2.396 7.253.949 11.907 3.408 4.887 2.552 11.3 2.661 11.72-2.802.327-3.19-4.903-7.626-6.382-10.724zm23.954 5.572c.498-1.712.98-3.315 1.058-4.513.125-2.366.25-4.467.685-6.21.482-1.961 1.447-3.596 3.33-4.25.359-3.283 2.911-3.283 5.962-1.945 2.941 1.323 4.046 2.49 3.548 4.062.156 0 .312-.015.654 0 .81-2.63-2.226-4.358-4.778-5.416.451-1.868.373-3.75-.062-5.556-.934-3.938-3.518-7.44-5.48-9.183-.357-.016-.326.296.406 1.011 1.805 1.666 5.774 7.658 3.626 13.214-.607-.155-1.183-.233-1.696-.217-.825-4.53-2.724-8.28-3.674-10.055-1.79-3.33-4.591-10.163-5.79-14.895-.7.996-1.93 1.852-3.47 2.335-.732.233-1.51.856-2.475 1.4-2.163 1.246-4.67 1.37-6.6-.186-.7-.56-1.244-1.183-1.96-1.603-.25-.14-.794-.514-.965-.638-.312 5.883-4.25 13.276-6.117 17.54-1.292 3.067-2.054 6.35-2.148 9.572-3.393-4.529-.918-10.319.405-12.825 1.478-2.739 1.712-3.501 1.354-3.237-1.339 2.18-3.424 5.65-4.234 9.214-.42 1.852-.498 3.736.047 5.479.545 1.743 1.728 3.346 3.829 4.653 0 0 3.86 2.226 5.961 5.059 1.152 1.556 1.51 2.91 1.152 3.875-.39 1.043-1.494 1.386-2.6 1.386.748.933 1.604 2.023 2.242 3.05 5.852 4 12.794 2.444 17.79-1.12zm20.14-4.498c-1.557-1.758-1.12-5.151-2.662-6.474-1.074-.934-2.116-.84-3.517-.794-1.199 1.37-4.016 3.05-5.977 2.537-1.79-.451-2.801-2.537-2.926-4.592-.047.032-.109.047-.156.078-1.105.607-1.727 1.681-2.132 3.284-.389 1.588-.53 3.658-.654 6.024-.109 1.836-.965 4.109-1.54 6.319-.545 2.054-.903 3.922-.172 5.65 1.12 2.256 3.035 3.175 5.245 3.003 2.21-.17 4.732-1.525 6.786-3.968 3.425-4.14 9.697-4.623 9.837-7.238.047-.794-.482-2.023-2.132-3.829zM25.105 23.3c.311.295.732.7 1.245 1.105 1.027.809 2.46 1.65 4.25 1.65 1.805 0 3.501-.919 4.949-1.681.762-.405 1.696-1.09 2.303-1.62.607-.528.918-.98.483-1.026-.436-.047-.405.404-.934.793-.685.498-1.51 1.152-2.164 1.526-1.151.653-3.035 1.587-4.653 1.587-1.619 0-2.91-.747-3.876-1.51-.482-.389-.887-.778-1.198-1.073-.234-.218-.296-.716-.67-.763-.217-.016-.28.576.265 1.012z"/></svg>
