<svg width="88" height="115" viewBox="0 0  88 115" xmlns="http://www.w3.org/2000/svg"><defs><linearGradient x1="49.993%" y1="100.005%" x2="49.993%" y2="-.002%" id="a"><stop stop-color="#C24B36" stop-opacity=".511" offset="0%"/><stop stop-color="gray" stop-opacity=".12" offset="54%"/><stop stop-color="gray" stop-opacity=".1" offset="100%"/></linearGradient><linearGradient x1="50.021%" y1="0%" x2="50.021%" y2="100%" id="b"><stop stop-color="#E0E0E0" offset="0%"/><stop stop-color="#FCCC63" offset="31%"/><stop stop-color="#F55F44" offset="77%"/></linearGradient><linearGradient x1="50%" y1="0%" x2="50%" y2="100%" id="c"><stop stop-color="#E0E0E0" offset="0%"/><stop stop-color="#FCCC63" offset="31%"/><stop stop-color="#F55F44" offset="77%"/></linearGradient></defs><g fill="none" fill-rule="evenodd"><circle fill="#F55F44" cx="44" cy="57" r="44"/><g transform="translate(19)" fill-rule="nonzero"><path d="M49.995 53.095a26.906 26.906 0 0 0-3.007-12.45c-.943-1.806-1.804-2.927-2.467-3.617a1.753 1.753 0 0 0-2.018-.39c-.267.095-.509.252-.706.458-.895.934-1.704 2.168-2.405 3.48a27.018 27.018 0 0 0-3.157 12.798v2.677H34.53V24.92c0-6.523-1.45-12.958-4.295-18.664-1.347-2.705-2.578-4.386-3.52-5.418a2.433 2.433 0 0 0-3.67 0c-1.278 1.399-2.432 3.25-3.436 5.215-2.988 5.832-4.505 12.451-4.505 19.165v30.82H13.63v-2.807a27.01 27.01 0 0 0-3.156-12.788c-.707-1.313-1.516-2.548-2.406-3.481a1.756 1.756 0 0 0-2.062-.377l.062.032a1.849 1.849 0 0 0-.576.405c-.661.692-1.522 1.81-2.465 3.616A26.906 26.906 0 0 0 .019 53.09V99.61h5.265l-.581 3.824v11.436h4.306v-11.436l-.576-3.826h5.189V57.24h1.474v42.185h4.205l-.603 4.009v11.436h4.305v-11.436l-.603-4.014h5.67l-.606 4.014v11.436h4.306v-11.436l-.603-4.014h3.357V57.244h1.706v42.432h1.383v-.064h4.574l-.574 3.82v11.437h4.306v-11.436l-.575-3.826h4.651V53.095z" opacity=".7" fill="url(#a)"/><path fill="#535461" d="M10 101H6l.715-5h2.57z"/><path d="M6.115 97.973h2.78l-.186-1.789H6.302z" opacity=".1" fill="#000"/><path fill="#535461" d="M45 101h-4l.713-5h2.574z"/><path d="M41.013 97.973h2.937l-.197-1.789H41.21z" opacity=".1" fill="#000"/><path fill="#535461" d="M23 101h-4l.713-5h2.574z"/><path d="M20.131 97.973h2.782l-.186-1.789h-2.41z" opacity=".1" fill="#000"/><path fill="#535461" d="M32 101h-4l.713-5h2.572z"/><path d="M28.022 97.973h2.936l-.198-1.789h-2.542z" opacity=".1" fill="#000"/><path fill="#535461" d="M10 55h29v1H10z"/><path d="M43.77 36.548a1.65 1.65 0 0 0-2.454 0c-.854.917-1.627 2.129-2.302 3.417A27.117 27.117 0 0 0 36 52.52V98h13V52.327a27.022 27.022 0 0 0-2.872-12.23c-.903-1.77-1.725-2.88-2.357-3.55zM6.228 36.548a1.65 1.65 0 0 1 2.454 0c.856.917 1.628 2.129 2.304 3.417 1.999 3.878 3.033 8.186 3.014 12.554V98H1V52.327a27.021 27.021 0 0 1 2.872-12.23c.902-1.77 1.723-2.88 2.356-3.55z" fill="#E0E0E0"/><path fill="#535461" d="M1 53l3 .016V57H1zM11 53l3 .016V57h-3zM36 53l3 .016V57h-3zM46 53l3 .016V57h-3z"/><path d="M11.14 40.086c-.635-1.283-1.36-2.49-2.164-3.403-.466-.553-1.221-.704-1.844-.37.174.093.332.218.465.37.803.913 1.529 2.12 2.162 3.403a28.339 28.339 0 0 1 2.831 12.505v45.296h1.38V52.592a28.363 28.363 0 0 0-2.83-12.506zM40.232 40.038c.648-1.284 1.391-2.49 2.213-3.404.154-.173.34-.311.547-.406a1.546 1.546 0 0 0-1.817.406c-.823.913-1.567 2.12-2.215 3.404a27.818 27.818 0 0 0-2.898 12.504v45.303h1.271v-45.3a27.797 27.797 0 0 1 2.899-12.507z" opacity=".1" fill="#000"/><path d="M8.055 112h-.11C6.871 112 6 111.118 6 110.029V101h4v9.029c0 .523-.205 1.024-.57 1.394-.365.37-.86.577-1.375.577z" fill="url(#b)"/><path d="M21.056 112h-.112c-1.074 0-1.944-.883-1.944-1.971V101h4v9.029c0 1.088-.87 1.97-1.944 1.971zM30.054 112h-.113c-1.073-.003-1.941-.884-1.941-1.971V101h4v9.029c0 1.089-.871 1.971-1.946 1.971zM43.056 112h-.107a1.934 1.934 0 0 1-1.378-.576 1.984 1.984 0 0 1-.571-1.395V101h4v9.029c0 1.088-.87 1.97-1.944 1.971z" fill="url(#c)"/><path d="M26.771.814a2.196 2.196 0 0 0-1.7-.814c-.655 0-1.277.298-1.7.814-1.177 1.364-2.254 3.165-3.196 5.082C17.406 11.578 16 18.03 16 24.57V97h18V24.279c0-6.356-1.346-12.631-3.977-18.185-1.236-2.636-2.375-4.274-3.252-5.28z" fill="#EEE"/><rect fill="#535461" x="20" y="9" width="10" height="4" rx="2"/><path d="M16.081 27.07h17.817v1H16.081z" opacity=".1" fill="#000"/></g></g></svg>
