<svg viewBox="0 0 2147 442" xmlns="http://www.w3.org/2000/svg"><g fill="none" fill-rule="evenodd" opacity=".2"><path d="M2145 320.66v84.783c-12.214 14.793-27.884 26.737-46.13 36.218h-377.835c-14.468-4.082-27.896-8.365-39.983-12.715-111.12-40.007-262.052-18.08-262.052-18.08s101.016-5.642 215.065 30.795H1115.43c126.382-28.058 249.154-122.775 370.77-105.936 68.389 9.47 65.923-1.174 44.224-15.064H2145z" fill="#42424D"/><path fill="#484954" d="M1439.907 3.66h19.345l91.711 64.055 125.842 21.33 47.738 3.9 236.08-39.643L2145 109.087v158.136l-409.112-8.508-149.27 11.946-14.353-15.35L666 236.468V126.01l70.102-51.355 102.391 22.964 310.778-36.023z"/><path fill="#535461" d="M1455 .66l-134.548 99.824 25.71 70.32-67.391 96.857-613.135-29.88L650 117.38l85.774-42.313 102.444 23.092L1455 .66"/><path fill="#32323B" d="M1082 176.88l168.318-42.22 121.181 21.11L1665 176.88l-61.33 133.936-422.832 14.845L1082 176.88"/><path fill="#42424D" d="M1249 134.66l110.337 121 303.091-33.572 3.572-44.914-417-42.513"/><path fill="#32323B" d="M2126.275 328.714H2145l-56.95-55.73-11.252-38.817-55.088-28.43L2145 134.661l-256 47.01 210.704 153.99 26.57-6.947"/><path fill="#F3BCA3" d="M1721 259.247l-7-.04 5.863-.133 1.137.173"/><path fill="#F3BCA3" d="M1621 267.66l22.588-48.913.775-.086L1720 259.714l-4.742.38-94.258 7.567"/><path d="M1603.536 305.66a32.882 32.882 0 0 1-17.264-8.858L1520 232.17l124-13.508-22.767 48.976-17.697 38.024" fill="#DD9F8C"/><path d="M1888.337 183.613l-40.497-6.507-90.17-36.445-164.608 52.064h-114.964L1222 263.687s9.733 10.47 26.188 23.556l29.372-18.058 178.333-50.906 68.484 101.819s104.235 25.553 155.49 28.164c51.254 2.607 32.3.324 32.3.324l138.865 8.071 3.912 8.574c29.51.567 54.073.639 67.362-.187 54.878-3.398 177.694-27.84 177.694-27.84l-211.663-153.591" fill="#32323B"/><path d="M1712.93 347.01s18.994 2.285-32.366-.324c-51.36-2.611-155.809-28.173-155.809-28.173l-68.624-101.852-178.699 50.923L1248 285.648c29.712 23.584 81.386 55.693 137.922 50.568 76.233-6.908 198.004 12.396 229.073 17.656 5.13.871 10.29 1.422 15.506 1.663 31.271 1.444 146.298 6.598 225.499 8.126l-3.92-8.576-139.15-8.075" fill="#373740"/><path d="M1605 198c2.705-1.788 126.768-39.34 126.768-39.34l40.463 84.94L1923 362.474l-67.399.186L1605 198" fill="#535461"/><path fill="#3D3E47" d="M1760 140.66l92.727 73.997-11.94 38.448 114.952 108.556L2100 337.105l-210.222-153.514-40.222-6.504L1760 140.661"/><path d="M1115.431 441.66h-694.11c-54.16-14.389-112.524-32.862-170.922-52.427-45.924-15.38-206.753-29.41-250.399-33v-38.352l210.432-32.42 556.065-12.8 691.168 12.8 2.6 1.068c10.246 4.247 48.32 20.347 69.423 33.664l.737.468c21.699 13.89 24.165 24.534-44.224 15.064-121.616-16.84-244.388 77.878-370.77 105.936z" fill="#535461"/><path fill="#373740" d="M0 228.172V125.567l97.332 2.47L277.71 65.66l118.853 57.392 236.545 2.235L688 214.136l-477.607 75.525z"/><path d="M1087 369.503L945.65 251.23l-161.627-66.966-71.471-126.604-151.879 78.076L555 158.562s40.854 5.073 85.535 51.369c44.683 46.295 116.174 123.456 116.174 123.456l142.394 43.092 109.932.182 77.965-7.158" fill="#34343D"/><path d="M643.189 208.625c-44.895-46.153-85.946-51.21-85.946-51.21l5.7-22.754L484 161.439l62.138 149.279L863.992 374.6l39.008.06-143.078-42.959s-71.835-76.923-116.733-123.076" fill="#2C2C33"/><path d="M1080.278 176.957C994.208 170.801 710 57.661 710 57.661l71.907 125.856 162.612 66.571 142.212 117.573L1387 340.429s-220.65-157.321-306.722-163.472" fill="#42424D"/><path fill="#373740" d="M1942.291 436.363L1927 441.66h70l-17.988-13.524-5.164-11.037-19.278-6.44v11.144l-12.279 14.559"/><path fill="#484954" d="M1922.877 437.34L1911 441.66h18.206l14.86-5.297 11.934-14.56v-11.142l-20.91 7.361-12.213 19.318"/><path d="M1721.035 441.747h-86.97C1520.016 405.311 1419 410.952 1419 410.952s150.932-21.927 262.052 18.08c12.087 4.35 25.515 8.633 39.983 12.715z" fill="#32323B"/><path fill="#25252B" d="M0 178.704v-54.668l97.441 2.448L278 64.66l-93.465 88.315v76.685L0 178.704z"/><path fill="#2C2C33" d="M0 315.98V143.953l216.519 64.813L260 231.983l-51.246 52.094z"/><path d="M0 319.35v-2.25l221.253-60.201 69.126-67.802a54.641 54.641 0 0 1 30.023-15.007l9.039-1.373 121.35-18.488a49.875 49.875 0 0 1 27.138 3.459l69.915 29.958a49.81 49.81 0 0 1 22.402 19.031l21.16 33.222 134.004 92.525L858 370.958l-6.24.241-192.647 7.462-510.322-69.357L0 319.35z" fill="#42424D"/><path fill="#373740" d="M250 259.584l65.853-66.923 140.402 17.354 88.816 109.062L660 377.66l-198.53-26.922L250 259.584"/><path d="M0 441.66v-85.427c43.646 3.59 204.475 17.62 250.399 33 58.398 19.565 116.761 38.038 170.922 52.428H0z" fill="#42424D"/><path fill="#3D3E47" d="M2145 137.389v193.13l-116.631-66.532L1992 193.081z"/><path fill="#535461" d="M2101.498 335.66l45.502-6.775-127.389-81.685L1962 236.66l139.498 99"/><path fill="#484954" d="M1459.252 3.66h-19.345l15.05-3z"/><path d="M2145 405.443v36.218l-47 .339.87-.34c18.246-9.48 33.916-21.424 46.13-36.217z" fill="#373740"/></g></svg>
