<?xml version="1.0" encoding="UTF-8"?><svg viewBox="0 0 113 77" xmlns="http://www.w3.org/2000/svg"><g ><path d="M77.2 7.887c-.541 0-.908.066-1.29.155v.062h.066c.255.489.688.847 1.008 1.284.254.504.47 1.007.724 1.506l.066-.07c.442-.311.659-.81.659-1.568-.188-.22-.217-.442-.377-.658-.188-.316-.592-.47-.847-.72l-.009.01zm-50.047 62.09H22.79c-.142-7.351-.58-14.26-1.271-20.753h-.038l-6.635 20.752H11.53L4.941 49.224h-.047c-.485 6.225-.79 13.143-.918 20.752H0c.259-9.251.904-17.929 1.93-26.023h5.41l6.283 19.125h.037L20 43.953h5.153c1.139 9.482 1.807 18.165 2.014 26.023h-.014zm18.903-19.2c-1.778 9.623-4.122 16.625-7.02 20.988-2.269 3.37-4.754 5.05-7.45 5.05-.72 0-1.6-.217-2.664-.65V73.84c.518.08 1.13.122 1.817.122 1.261 0 2.273-.353 3.045-1.044.927-.847 1.388-1.798 1.388-2.847 0-.73-.363-2.212-1.083-4.443l-4.771-14.852H33.6l3.421 11.106c.772 2.523 1.097 4.283.965 5.285 1.882-5.007 3.19-10.48 3.93-16.39h4.14zm58 19.2H91.68V43.952h4.165v22.823h8.211v3.2zm-15.623.635l-4.781-2.353a10.17 10.17 0 0 0 1.2-1.177c2.037-2.38 3.05-5.92 3.05-10.602 0-8.612-3.38-12.922-10.142-12.922-3.313 0-5.901 1.091-7.765 3.28-2.023 2.39-3.04 5.91-3.04 10.564 0 4.574.894 7.934 2.701 10.07 1.648 1.93 4.128 2.895 7.45 2.895 1.242 0 2.381-.155 3.412-.461l6.235 3.633 1.694-2.927h-.014zM72.94 64.767c-1.059-1.694-1.586-4.423-1.586-8.17 0-6.555 1.996-9.835 5.977-9.835 2.084 0 3.623.786 4.597 2.353 1.055 1.704 1.582 4.405 1.582 8.109 0 6.607-1.996 9.92-5.977 9.92-2.094 0-3.623-.786-4.602-2.353l.01-.024zm-7.802-2c0 2.212-.81 4.028-2.428 5.44-1.62 1.412-3.78 2.118-6.513 2.118-2.556 0-5.007-.81-7.403-2.424l1.116-2.24c2.06 1.035 3.92 1.544 5.6 1.544 1.562 0 2.79-.344 3.684-1.036.885-.691 1.412-1.665 1.412-2.894 0-1.553-1.082-2.87-3.05-3.976a502.656 502.656 0 0 1-5.472-3.092c-1.986-1.445-2.974-2.993-2.974-5.539 0-2.117.738-3.812 2.211-5.106 1.483-1.308 3.389-1.953 5.742-1.953 2.409 0 4.611.64 6.588 1.93l-1.003 2.24c-1.694-.715-3.364-1.083-5.007-1.083-1.331 0-2.362.32-3.077.97-.72.64-1.167 1.459-1.167 2.466 0 1.543 1.1 2.87 3.134 4 1.85 1.012 5.586 3.153 5.586 3.153 2.037 1.435 3.05 2.964 3.05 5.496l-.03-.014z"/><path d="M109.29 35.228c-2.518-.066-4.471.188-6.104.885-.47.188-1.224.188-1.29.786.26.25.297.659.518 1.007.377.63 1.026 1.473 1.628 1.915a25.615 25.615 0 0 0 2.01 1.459c1.223.753 2.612 1.2 3.812 1.958.682.442 1.378 1.002 2.07 1.473.344.235.565.658 1.007.809v-.094c-.216-.282-.282-.692-.494-1.007-.315-.315-.63-.598-.941-.908-.913-1.224-2.047-2.292-3.27-3.177-1.008-.687-3.21-1.647-3.624-2.8l-.061-.066c.687-.06 1.505-.31 2.164-.499 1.069-.282 2.047-.22 3.153-.498a27.123 27.123 0 0 0 1.506-.443v-.282c-.565-.565-.988-1.332-1.572-1.859-1.6-1.388-3.374-2.739-5.195-3.873-.988-.63-2.24-1.035-3.28-1.572-.376-.188-1.007-.282-1.223-.597-.565-.687-.895-1.6-1.295-2.42a83.245 83.245 0 0 1-2.574-5.472c-.564-1.233-.908-2.461-1.6-3.59-3.247-5.351-6.762-8.594-12.17-11.765-1.161-.66-2.554-.942-4.027-1.29-.786-.037-1.572-.094-2.353-.127-.518-.221-1.017-.819-1.46-1.106-1.787-1.13-6.418-3.576-7.736-.339-.847 2.043 1.257 4.057 1.986 5.092.541.72 1.224 1.544 1.6 2.353.221.546.283 1.106.504 1.675.499 1.384.974 2.928 1.633 4.222.343.658.72 1.35 1.162 1.943.254.344.687.504.786 1.068-.442.64-.47 1.572-.725 2.353-1.13 3.563-.687 7.967.913 10.589.504.78 1.704 2.513 3.308 1.849 1.412-.565 1.102-2.353 1.506-3.93.094-.376.033-.625.226-.88v.071c.443.885.885 1.727 1.29 2.612.97 1.543 2.663 3.143 4.08 4.212.753.564 1.35 1.543 2.291 1.891v-.094h-.07c-.203-.273-.47-.404-.725-.626-.565-.564-1.2-1.256-1.647-1.882-1.318-1.774-2.48-3.718-3.515-5.732-.518-.988-.95-2.051-1.365-3.026-.188-.376-.188-.94-.503-1.129-.471.687-1.163 1.285-1.506 2.132-.598 1.355-.66 3.021-.885 4.753-.127.033-.066 0-.127.066-1.007-.245-1.35-1.29-1.727-2.165-.941-2.235-1.097-5.826-.283-8.4.222-.659 1.163-2.739.786-3.37-.197-.597-.818-.94-1.162-1.425a11.66 11.66 0 0 1-1.13-2.01c-.752-1.76-1.129-3.708-1.948-5.468-.376-.814-1.035-1.666-1.571-2.414-.598-.847-1.257-1.445-1.732-2.447-.155-.344-.377-.913-.127-1.29.066-.254.197-.353.442-.423.414-.339 1.577.103 1.986.292 1.162.47 2.141.913 3.115 1.571.443.311.918.909 1.483 1.064h.658c1.008.221 2.142.066 3.083.343 1.67.537 3.176 1.318 4.527 2.165 4.122 2.617 7.51 6.33 9.812 10.758.376.725.54 1.388.884 2.141.66 1.553 1.473 3.12 2.142 4.621.658 1.483 1.294 2.993 2.24 4.221.47.66 2.362 1.003 3.209 1.346.626.283 1.6.541 2.165.885 1.082.659 2.136 1.412 3.153 2.136.517.358 2.084 1.144 2.178 1.78z"/></g></svg>
