<?xml version="1.0" encoding="UTF-8"?><svg viewBox="0 0 131 80" xmlns="http://www.w3.org/2000/svg"><path d="M64.551 80c-.429 0-.857-.122-1.245-.327l-3.918-2.326c-.592-.327-.306-.449-.102-.51.775-.266.938-.327 1.775-.817.082-.04.204-.02.286.02l3.02 1.797a.39.39 0 0 0 .368 0L76.53 71.02a.386.386 0 0 0 .183-.326V57.082c0-.143-.06-.266-.183-.327L64.735 49.96a.39.39 0 0 0-.368 0l-11.796 6.796c-.122.061-.183.204-.183.327v13.612a.38.38 0 0 0 .183.306l3.225 1.857c1.755.878 2.837-.163 2.837-1.184v-13.45c0-.183.143-.346.347-.346h1.49c.183 0 .346.142.346.346v13.45c0 2.346-1.265 3.673-3.49 3.673-.673 0-1.224 0-2.714-.735l-3.102-1.775c-.755-.45-1.245-1.266-1.245-2.143V57.082c0-.878.47-1.715 1.245-2.143l11.796-6.817c.755-.428 1.735-.428 2.47 0L77.57 54.94c.756.449 1.245 1.265 1.245 2.143v13.612c0 .877-.47 1.714-1.245 2.143l-11.795 6.816A2.26 2.26 0 0 1 64.55 80zm9.53-13.429c0-2.55-1.714-3.224-5.346-3.714-3.674-.49-4.041-.735-4.041-1.592 0-.714.306-1.653 3.02-1.653 2.429 0 3.327.53 3.694 2.164.041.163.163.265.327.265h1.53a.339.339 0 0 0 .245-.102c.061-.082.102-.163.082-.266-.245-2.816-2.102-4.122-5.878-4.122-3.367 0-5.367 1.429-5.367 3.796 0 2.592 2 3.286 5.224 3.612 3.858.388 4.164.939 4.164 1.694 0 1.327-1.062 1.878-3.551 1.878-3.123 0-3.817-.776-4.041-2.327-.02-.163-.163-.286-.347-.286h-1.53a.344.344 0 0 0-.348.347c0 1.98 1.082 4.347 6.245 4.347 3.776 0 5.919-1.47 5.919-4.04zm11.123-10.224a2.273 2.273 0 0 1-2.265 2.265 2.273 2.273 0 0 1-2.266-2.265c0-1.286 1.062-2.265 2.266-2.265 1.224-.02 2.265.98 2.265 2.265zm-.367 0a1.899 1.899 0 0 0-1.919-1.898c-1.04 0-1.898.837-1.898 1.898s.858 1.918 1.898 1.918c1.062-.02 1.919-.877 1.919-1.918zm-.919 1.265h-.53a29.26 29.26 0 0 1-.102-.796c-.041-.143-.082-.224-.266-.224h-.449v1.02h-.49v-2.55h.878c.306 0 .898 0 .898.673 0 .47-.306.571-.49.632.347.02.368.245.429.572.02.204.061.55.122.673zm-.571-1.796c0-.347-.245-.347-.367-.347h-.409v.715h.388c.327 0 .388-.225.388-.368zM28.02 26.735c0-.551-.285-1.041-.755-1.306l-12.51-7.205a1.614 1.614 0 0 0-.694-.204h-.122c-.245 0-.47.082-.694.204L.755 25.43c-.47.265-.755.775-.755 1.306l.02 19.387c0 .266.143.51.368.654.224.142.51.142.755 0L8.57 42.51c.47-.286.756-.775.756-1.306v-9.061c0-.53.285-1.041.755-1.306l3.163-1.817a1.45 1.45 0 0 1 .755-.204c.265 0 .53.062.755.204l3.163 1.817c.47.265.755.775.755 1.306v9.061c0 .53.286 1.04.756 1.306l7.428 4.266c.225.142.53.142.755 0a.754.754 0 0 0 .368-.654l.04-19.387zM96.43 5.57v36a1.51 1.51 0 0 1-.756 1.307l-12.51 7.224c-.47.265-1.04.265-1.51 0l-12.51-7.224a1.508 1.508 0 0 1-.755-1.307V27.122c0-.53.285-1.04.755-1.306l12.51-7.224a1.532 1.532 0 0 1 1.51 0l3.123 1.796a.534.534 0 0 0 .796-.45V.756a.75.75 0 0 1 1.122-.653l7.45 4.163c.468.245.775.755.775 1.306zm-9.39 26.308a.386.386 0 0 0-.184-.327l-4.286-2.49a.432.432 0 0 0-.387 0l-4.286 2.49c-.122.061-.184.184-.184.327v4.959c0 .143.082.265.184.326l4.286 2.47a.39.39 0 0 0 .367 0l4.286-2.47c.122-.061.183-.183.183-.326v-4.96h.02zm42.816-.143c.47-.266.755-.776.755-1.306v-3.49c0-.53-.285-1.041-.755-1.306l-12.428-7.225a1.532 1.532 0 0 0-1.51 0l-12.51 7.225c-.47.265-.756.775-.756 1.306v14.449c0 .55.286 1.04.755 1.306l12.429 7.082c.449.265 1.02.265 1.49 0l7.51-4.184a.749.749 0 0 0 0-1.306l-12.592-7.225a.755.755 0 0 1-.388-.653v-4.53c0-.266.143-.51.388-.654l3.918-2.265a.719.719 0 0 1 .755 0l3.919 2.265c.224.143.387.388.387.654v3.55c0 .572.633.94 1.143.654l7.49-4.347zm-15.775.714c-.082.061-.143.143-.143.245v2.775c0 .102.061.204.143.245l2.408 1.388a.245.245 0 0 0 .286 0l2.408-1.388c.081-.06.143-.143.143-.245v-2.775a.283.283 0 0 0-.143-.245l-2.408-1.388a.245.245 0 0 0-.286 0l-2.408 1.388zm-51.878 8.878V26.959c0-.53-.326-1.04-.796-1.306l-12.47-7.184a1.531 1.531 0 0 0-1.51 0L34.96 25.653c-.47.265-.796.755-.796 1.306v14.368c0 .571.388 1.06.817 1.306l12.49 7.183a1.48 1.48 0 0 0 1.51 0l12.449-7.183c.367-.204.632-.551.734-.96.02-.102.041-.224.041-.346zM47.04 15.837l-.163.102h.224l-.061-.102zm15.55 26.571l-.08-.143v.184l.08-.04z"/></svg>
