<svg width="540" height="467" viewBox="0 0 540 467" xmlns="http://www.w3.org/2000/svg"><defs><linearGradient x1="50%" y1="100.004%" x2="50%" y2="0%" id="a"><stop stop-color="gray" stop-opacity=".25" offset="0%"/><stop stop-color="gray" stop-opacity=".12" offset="54%"/><stop stop-color="gray" stop-opacity=".1" offset="100%"/></linearGradient><linearGradient x1="37.033%" y1="103.528%" x2="63.886%" y2="4.651%" id="b"><stop stop-color="gray" stop-opacity=".25" offset="0%"/><stop stop-color="gray" stop-opacity=".12" offset="54%"/><stop stop-color="gray" stop-opacity=".1" offset="100%"/></linearGradient><linearGradient x1="37.11%" y1="102.99%" x2="63.964%" y2="4.113%" id="c"><stop stop-color="gray" stop-opacity=".25" offset="0%"/><stop stop-color="gray" stop-opacity=".12" offset="54%"/><stop stop-color="gray" stop-opacity=".1" offset="100%"/></linearGradient><linearGradient x1="50%" y1="100%" x2="50%" y2="0%" id="d"><stop stop-color="gray" stop-opacity=".25" offset="0%"/><stop stop-color="gray" stop-opacity=".12" offset="54%"/><stop stop-color="gray" stop-opacity=".1" offset="100%"/></linearGradient></defs><g fill-rule="nonzero" fill="none"><ellipse cx="94.5" cy="73.199" rx="94.153" ry="72.654" opacity=".8" transform="translate(183 12)" fill="url(#a)"/><ellipse fill="#F55F44" cx="278" cy="84.5" rx="92" ry="71.5"/><path d="M200.69 93.318c0-39.338 41.327-71.228 92.31-71.228a113.545 113.545 0 0 1 46 9.457C322.775 20.632 301.548 14 278.316 14 227.333 14 186 45.89 186 85.229c0 26.413 18.636 49.47 46.322 61.771-19.383-13.06-31.631-32.263-31.631-53.682z" fill="#FFF" opacity=".1"/><path fill="#535461" opacity=".2" d="M278 114l102 176.503L482 467H74l102-176.497z"/><path d="M82.526 76.594l7.908-23.508c5.584-16.807-.457-35.295-14.88-45.544l.065-.038a39.407 39.407 0 0 0-10.128-5.14l-.109-.038-.122-.039A39.418 39.418 0 0 0 54.421.244a37.957 37.957 0 0 0-3.919 0c-2.265.119-4.516.43-6.728.932-.641.141-1.283.302-1.866.475-.584.174-1.238.36-1.847.56-1.22.404-2.418.86-3.592 1.38a33.2 33.2 0 0 0-1.745.816 39.41 39.41 0 0 0-4.97 2.93c-.533.366-1.052.745-1.565 1.13a39.83 39.83 0 0 0-13.623 19.017L2.136 64.522a39.806 39.806 0 0 0-1.72 18.066c.13.932.29 1.857.476 2.775.186.92.416 1.825.64 2.724.174.598.354 1.195.552 1.786.296.88.642 1.76.969 2.622.237.571.487 1.143.75 1.709a40.156 40.156 0 0 0 1.72 3.295 34.764 34.764 0 0 0 2.026 3.136c.539.758 1.11 1.503 1.7 2.223.795.963 1.629 1.927 2.514 2.781a39.638 39.638 0 0 0 13.469 8.924l.218.09c.271-.482.571-.948.898-1.394 1.924-2.64 5.272-4.497 8.46-3.803.23.051.461.122.692.192 1.617.572 3.207 1.594 4.766 2.095 1.147.516 2.464.5 3.598-.045 3.117-1.664 1.963-6.913 4.637-9.213a4.17 4.17 0 0 1 .391-.296 1.208 1.208 0 0 1-.102-.147c2.065-1.285 4.926-.43 7.305.398 2.566.906 5.914 1.516 7.697-.585 1.205-1.439 1.116-3.63 2.264-5.14 1.334-1.734 3.848-1.927 6.022-1.618l.11.032c4.168 1.722 8.722-1.137 8.401-5.641-.378-6.007 1.508-11.667 1.937-12.894z" opacity=".3" transform="translate(219 287)" fill="url(#b)"/><path d="M246.162 398.654c1.868-2.563 5.074-4.357 8.146-3.659 3.071.699 5.983 3.627 8.715 2.16 3.737-2 1.088-9.35 7.154-9.894a7.95 7.95 0 0 1 3.692.64c2.56 1.045 6.566 2.224 8.537-.128 1.158-1.384 1.075-3.492 2.182-4.928 1.28-1.666 3.718-1.877 5.797-1.557l.103.032c4.012 1.66 8.401-1.096 8.088-5.428-.403-5.767 1.427-11.201 1.824-12.38l7.602-22.627c6.731-20.194-4.092-42.04-24.22-48.888-20.163-6.732-41.97 4.108-48.805 24.261l-11.986 35.585c-6.466 19.427 3.3 40.537 22.281 48.157.27-.466.567-.915.89-1.346z" fill="#FFF"/><circle fill="#000" opacity=".2" cx="261" cy="312" r="4"/><circle fill="#000" opacity=".2" cx="284" cy="320" r="4"/><ellipse fill="#E0E0E0" transform="rotate(-71.4 267.16 332.134)" cx="267.159" cy="332.134" rx="6.27" ry="4.185"/><circle fill="#FFF" cx="355.5" cy="313.5" r="6.5"/><circle fill="#FFF" cx="375" cy="303" r="3"/><g opacity=".5" transform="translate(228 35)"><path d="M82.526 76.594l7.908-23.508c5.584-16.807-.457-35.295-14.88-45.544l.065-.038a39.407 39.407 0 0 0-10.128-5.14l-.109-.038-.122-.039A39.418 39.418 0 0 0 54.421.244a37.957 37.957 0 0 0-3.919 0c-2.265.119-4.516.43-6.728.932-.641.141-1.283.302-1.866.475-.584.174-1.238.36-1.847.56-1.22.404-2.418.86-3.592 1.38a33.2 33.2 0 0 0-1.745.816 39.41 39.41 0 0 0-4.97 2.93c-.533.366-1.052.745-1.565 1.13a39.83 39.83 0 0 0-13.623 19.017L2.136 64.522a39.806 39.806 0 0 0-1.72 18.066c.13.932.29 1.857.476 2.775.186.92.416 1.825.64 2.724.174.598.354 1.195.552 1.786.296.88.642 1.76.969 2.622.237.571.487 1.143.75 1.709a40.156 40.156 0 0 0 1.72 3.295 34.764 34.764 0 0 0 2.026 3.136 39.635 39.635 0 0 0 4.214 5.005 39.638 39.638 0 0 0 13.469 8.923l.218.09c.271-.482.571-.948.898-1.394 1.924-2.64 5.272-4.497 8.46-3.803.23.051.461.122.692.192 1.617.572 3.207 1.594 4.766 2.095 1.147.516 2.464.5 3.598-.045 3.117-1.664 1.963-6.913 4.637-9.213a4.17 4.17 0 0 1 .391-.296 1.208 1.208 0 0 1-.102-.147c2.065-1.285 4.926-.43 7.305.398 2.566.906 5.914 1.516 7.697-.585 1.205-1.439 1.116-3.63 2.264-5.14 1.334-1.734 3.848-1.927 6.022-1.618h.11c4.168 1.721 8.722-1.138 8.401-5.641-.378-5.975 1.508-11.635 1.937-12.862z" opacity=".3" fill="url(#c)"/><path d="M27.073 111.28c1.872-2.57 5.086-4.369 8.164-3.668 3.079.7 5.997 3.636 8.736 2.165 3.746-2.005 1.09-9.374 7.17-9.92a7.967 7.967 0 0 1 3.701.643c2.566 1.047 6.58 2.23 8.556-.129 1.161-1.387 1.078-3.501 2.187-4.94 1.283-1.67 3.727-1.883 5.811-1.561l.103.032c4.021 1.664 8.421-1.099 8.107-5.442-.404-5.782 1.43-11.23 1.828-12.412l7.62-22.685c6.747-20.246-4.101-42.148-24.277-49.014C44.57-2.4 22.713 8.468 15.861 28.673L3.848 64.349c-6.481 19.477 3.308 40.64 22.333 48.28.27-.466.568-.917.892-1.349z" fill="#FFF"/><ellipse fill="#000" opacity=".2" cx="41.273" cy="25.107" rx="4.175" ry="4.182"/><ellipse fill="#000" opacity=".2" cx="65.017" cy="33.106" rx="4.175" ry="4.182"/></g><path d="M366.086 64a56.444 56.444 0 0 1 1.79 14.154c0 39.418-41.14 71.374-91.892 71.374-41.537-.026-76.632-21.424-87.984-50.787C196.432 131.404 233.561 156 278.102 156 328.854 156 370 124.044 370 84.626A56.847 56.847 0 0 0 366.086 64z" fill="#000" opacity=".1"/><ellipse cx="191" cy="49.795" rx="190.473" ry="49.622" opacity=".8" transform="translate(87 66)" fill="url(#d)"/><path d="M278 68C176.383 68 94 89.487 94 116h368c0-26.513-82.383-48-184-48zM278 164c101.617 0 184-21.49 184-48H94c0 26.51 82.383 48 184 48z" fill="#FFF"/><path d="M278 164c101.617 0 184-21.49 184-48H94c0 26.51 82.383 48 184 48z" fill="#000" opacity=".05"/><rect fill="#000" opacity=".05" x="190" y="104" width="176" height="25" rx="12.5"/><path d="M86.261 37.574a2.471 2.471 0 0 1-1.378-2.983c.028-.09.047-.182.054-.275a1.236 1.236 0 0 0-2.225-.82 1.222 1.222 0 0 0-.135.242 2.468 2.468 0 0 1-2.985 1.377 1.346 1.346 0 0 0-.275-.054 1.237 1.237 0 0 0-.82 2.224c.074.057.155.104.242.14a2.471 2.471 0 0 1 1.378 2.983 1.269 1.269 0 0 0-.054.269 1.236 1.236 0 0 0 2.225.826c.055-.077.1-.16.135-.248a2.468 2.468 0 0 1 2.985-1.344c.09.028.182.046.275.054a1.237 1.237 0 0 0 .82-2.224 1.09 1.09 0 0 0-.242-.167zM413.259 233.574a2.468 2.468 0 0 1-1.35-2.983c.028-.09.047-.182.054-.275a1.236 1.236 0 0 0-.81-1.24 1.245 1.245 0 0 0-1.424.42c-.054.075-.099.157-.135.242a2.48 2.48 0 0 1-2.996 1.377 1.355 1.355 0 0 0-.276-.054 1.242 1.242 0 0 0-1.245.806c-.19.514-.019 1.09.421 1.418.075.057.157.104.243.14a2.468 2.468 0 0 1 1.35 2.983 1.265 1.265 0 0 0-.054.269c-.039.547.29 1.054.806 1.246.517.19 1.098.02 1.428-.42.055-.077.1-.16.135-.248a2.48 2.48 0 0 1 2.996-1.344c.09.028.182.046.276.054a1.242 1.242 0 0 0 1.245-.806c.19-.513.019-1.09-.421-1.418a1.093 1.093 0 0 0-.243-.167zM52.261 324.574a2.471 2.471 0 0 1-1.378-2.983c.028-.09.047-.182.054-.275a1.236 1.236 0 0 0-2.225-.82 1.222 1.222 0 0 0-.135.242 2.468 2.468 0 0 1-2.985 1.377 1.346 1.346 0 0 0-.275-.054 1.237 1.237 0 0 0-.82 2.224c.074.057.155.104.242.14a2.471 2.471 0 0 1 1.378 2.983 1.269 1.269 0 0 0-.054.269 1.236 1.236 0 0 0 2.225.826c.055-.077.1-.16.135-.248a2.468 2.468 0 0 1 2.985-1.344c.09.028.182.046.275.054a1.237 1.237 0 0 0 .82-2.224 1.09 1.09 0 0 0-.242-.167zM17.228 112.574a2.471 2.471 0 0 1-1.345-2.983c.028-.09.047-.182.054-.275a1.236 1.236 0 0 0-2.225-.82 1.222 1.222 0 0 0-.135.242 2.468 2.468 0 0 1-2.985 1.377 1.346 1.346 0 0 0-.275-.054 1.237 1.237 0 0 0-.82 2.224c.074.057.155.104.242.14a2.471 2.471 0 0 1 1.378 2.983 1.269 1.269 0 0 0-.054.269 1.236 1.236 0 0 0 2.225.826c.055-.077.1-.16.135-.248a2.468 2.468 0 0 1 2.985-1.344c.09.028.182.046.275.054a1.237 1.237 0 0 0 .82-2.224 1.09 1.09 0 0 0-.275-.167zM407.26 4.537a2.459 2.459 0 0 1-1.321-2.959c.028-.089.045-.18.053-.273a1.226 1.226 0 0 0-.793-1.23 1.21 1.21 0 0 0-1.395.417 1.216 1.216 0 0 0-.132.24 2.42 2.42 0 0 1-2.935 1.333 1.312 1.312 0 0 0-.271-.054 1.215 1.215 0 0 0-1.39.772 1.23 1.23 0 0 0 .55 1.5c.074.057.154.104.239.14a2.459 2.459 0 0 1 1.321 2.96 1.268 1.268 0 0 0-.052.266 1.227 1.227 0 0 0 .809 1.282 1.211 1.211 0 0 0 1.425-.496c.054-.076.098-.16.132-.247a2.42 2.42 0 0 1 2.934-1.332c.089.027.18.045.271.053a1.216 1.216 0 0 0 1.22-.8 1.232 1.232 0 0 0-.413-1.406 1.07 1.07 0 0 0-.251-.166z" fill="#4D8AF0" opacity=".5"/><g opacity=".5" fill="#47E6B1"><path d="M70.529 165.567h1.941V176.9h-1.941z"/><path d="M77 170.233v2H66v-2z"/></g><g opacity=".5" fill="#47E6B1"><path d="M533.529 113.567h1.941V124.9h-1.941z"/><path d="M540 118.233v2h-11v-2z"/></g><g opacity=".5" fill="#47E6B1"><path d="M469.529 293.567h1.941V304.9h-1.941z"/><path d="M476 298.233v2h-11v-2z"/></g><circle fill="#F55F44" opacity=".5" cx="465" cy="53" r="4"/><circle fill="#F55F44" opacity=".5" cx="4" cy="8" r="4"/><circle fill="#F55F44" opacity=".5" cx="120" cy="230" r="4"/><ellipse fill="#000" opacity=".05" cx="150" cy="99.5" rx="22" ry="4.5"/><ellipse fill="#000" opacity=".05" cx="150" cy="133.5" rx="22" ry="4.5"/><ellipse fill="#000" opacity=".05" cx="399" cy="99.5" rx="22" ry="4.5"/><ellipse fill="#000" opacity=".05" cx="399" cy="133.5" rx="22" ry="4.5"/><ellipse fill="#000" opacity=".05" cx="278" cy="79.5" rx="22" ry="4.5"/><ellipse fill="#000" opacity=".05" cx="294" cy="33.5" rx="22" ry="4.5"/><ellipse fill="#000" opacity=".05" cx="252" cy="52.5" rx="22" ry="4.5"/><ellipse fill="#000" opacity=".05" cx="332" cy="60.5" rx="22" ry="4.5"/><ellipse fill="#000" opacity=".05" cx="278" cy="146.5" rx="22" ry="4.5"/></g></svg>
