<?xml version="1.0" encoding="UTF-8"?><svg viewBox="0 0 138 74" xmlns="http://www.w3.org/2000/svg"><g ><path d="M40.057 26.754h-5.394L31.72 41.886h4.789c3.177 0 5.542-.6 7.097-1.795 1.554-1.2 2.6-3.194 3.143-5.994.525-2.686.285-4.583-.709-5.686-1-1.102-2.989-1.657-5.983-1.657z"/><path d="M68.571.931C30.703.931 0 17.08 0 37s30.703 36.074 68.571 36.074c37.869 0 68.572-16.154 68.572-36.074C137.143 17.08 106.44.931 68.57.931zM49.943 43.51a13.868 13.868 0 0 1-5.24 3.148c-1.92.617-4.372.937-7.343.937h-6.749L28.743 57.2h-7.874l7.028-36.149H43.04c4.554 0 7.874 1.195 9.966 3.589 2.091 2.389 2.72 5.726 1.885 10.011a16.206 16.206 0 0 1-1.742 4.84c-.818 1.458-1.886 2.8-3.206 4.018zm22.994 4.085L76.04 31.6c.36-1.817.223-3.063-.389-3.72-.611-.663-1.92-.994-3.925-.994h-6.24L61.463 47.6h-7.817l7.028-36.154h7.812l-1.869 9.611h6.96c4.383 0 7.4.766 9.063 2.292 1.663 1.525 2.16 4 1.503 7.422l-3.269 16.823h-7.937zm43.412-12.943a15.897 15.897 0 0 1-1.743 4.84c-.817 1.458-1.886 2.8-3.206 4.018a13.943 13.943 0 0 1-5.24 3.148c-1.92.617-4.371.937-7.349.937H92.07l-1.87 9.611h-7.874l7.028-36.149h15.137c4.555 0 7.875 1.194 9.966 3.589 2.092 2.383 2.726 5.72 1.892 10.005z"/><path d="M101.52 26.754h-5.389l-2.948 15.132h4.788c3.183 0 5.549-.6 7.098-1.795 1.554-1.2 2.6-3.194 3.148-5.994.526-2.686.28-4.583-.714-5.686-.994-1.102-2.994-1.657-5.983-1.657z"/></g></svg>
