<?xml version="1.0" encoding="UTF-8"?><svg viewBox="0 0 88 78" xmlns="http://www.w3.org/2000/svg"><circle cx="43.636" cy="39" r="7.778"/><path d="M21.847 54.473l-1.716-.437C7.338 50.804 0 45.316 0 38.986c0-6.331 7.338-11.819 20.13-15.051l1.717-.433.484 1.702a85.564 85.564 0 0 0 4.956 13.01l.368.775-.368.775a84.753 84.753 0 0 0-4.956 13.01l-.484 1.699zm-2.512-26.564C9.61 30.64 3.644 34.82 3.644 38.985c0 4.164 5.967 8.342 15.69 11.077a90.727 90.727 0 0 1 4.299-11.077 90.007 90.007 0 0 1-4.298-11.076zm46.09 26.564l-.483-1.706a84.935 84.935 0 0 0-4.96-13.007l-.367-.775.367-.774a85.164 85.164 0 0 0 4.96-13.011l.483-1.702 1.72.433c12.79 3.233 20.128 8.72 20.128 15.054 0 6.335-7.338 11.819-20.128 15.051l-1.72.437zM63.64 38.985c1.745 3.779 3.19 7.491 4.298 11.077 9.727-2.735 15.691-6.913 15.691-11.077 0-4.167-5.967-8.341-15.69-11.076a90.138 90.138 0 0 1-4.299 11.076z"/><path d="M19.31 27.89l-.485-1.697C15.23 13.516 16.32 4.433 21.818 1.262c5.393-3.113 14.051.563 23.124 9.876l1.236 1.27-1.236 1.268a85.644 85.644 0 0 0-8.807 10.79l-.491.701-.855.073a86.025 86.025 0 0 0-13.764 2.218l-1.716.433zm6.894-24.108c-.975 0-1.837.21-2.564.629-3.615 2.084-4.255 9.327-1.764 19.102a91.353 91.353 0 0 1 11.757-1.822 90.353 90.353 0 0 1 7.462-9.251C35.422 6.916 30.05 3.782 26.204 3.782zm34.869 74.043c-.004 0-.004 0 0 0-5.182 0-11.837-3.901-18.742-10.992l-1.236-1.27 1.236-1.268a85.564 85.564 0 0 0 8.804-10.793l.49-.702.851-.073a85.927 85.927 0 0 0 13.771-2.214l1.717-.433.487 1.702c3.589 12.669 2.502 21.756-2.996 24.923a8.655 8.655 0 0 1-4.382 1.12zM46.178 65.531c5.673 5.524 11.044 8.658 14.891 8.658h.004c.97 0 1.836-.21 2.56-.629 3.614-2.084 4.258-9.33 1.763-19.105a90.982 90.982 0 0 1-11.76 1.821 89.724 89.724 0 0 1-7.458 9.255z"/><path d="M67.964 27.89l-1.717-.432a85.378 85.378 0 0 0-13.77-2.218l-.852-.073-.49-.702a85.142 85.142 0 0 0-8.804-10.789l-1.236-1.269 1.236-1.269C51.4 1.83 60.055-1.847 65.455 1.262c5.498 3.17 6.589 12.254 2.996 24.927l-.487 1.702zm-14.328-6.2c4.153.38 8.099.994 11.76 1.823 2.495-9.775 1.851-17.018-1.763-19.102-3.593-2.076-10.346 1.105-17.455 8.029a90.36 90.36 0 0 1 7.458 9.25zM26.204 77.826a8.655 8.655 0 0 1-4.386-1.12c-5.498-3.167-6.589-12.25-2.993-24.923l.48-1.702 1.717.433c4.2 1.058 8.833 1.803 13.763 2.214l.855.073.487.702a85.804 85.804 0 0 0 8.808 10.793l1.236 1.269-1.236 1.269c-6.902 7.09-13.557 10.992-18.731 10.992zm-4.328-23.37c-2.494 9.774-1.85 17.021 1.764 19.105 3.59 2.047 10.338-1.11 17.455-8.03a90.902 90.902 0 0 1-7.462-9.254 90.822 90.822 0 0 1-11.757-1.821z"/><path d="M43.636 56.738c-2.992 0-6.069-.13-9.149-.385l-.854-.073-.491-.702a110.502 110.502 0 0 1-4.91-7.716 110.378 110.378 0 0 1-4.24-8.102l-.363-.775.364-.774c1.3-2.758 2.715-5.461 4.24-8.102a110.19 110.19 0 0 1 4.909-7.716l.49-.702.855-.073a108.31 108.31 0 0 1 18.302 0l.851.073.487.702A109.113 109.113 0 0 1 63.28 38.21l.367.774-.367.775a107.636 107.636 0 0 1-9.153 15.818l-.487.702-.85.073c-3.08.254-6.16.385-9.154.385zm-7.989-3.942c5.382.404 10.597.404 15.982 0a105.476 105.476 0 0 0 7.986-13.81 103.945 103.945 0 0 0-7.99-13.811 105.567 105.567 0 0 0-15.978 0 103.553 103.553 0 0 0-7.989 13.81 105.87 105.87 0 0 0 7.99 13.811z"/></svg>
