<svg viewBox="0 0 244 557" xmlns="http://www.w3.org/2000/svg" aria-labelledby="rocket-img-title" aria-describedby="rocket-img-description" role="img">
<title id="rocket-img-title">Rocket</title>
<desc id="rocket-img-description">A rocket flying on space</desc>
<defs><linearGradient x1="49.993%" y1="100.005%" x2="49.993%" y2="-.002%" id="rocket-gradient-a"><stop stop-color="#rocket-gradient-c24B36" stop-opacity=".511" offset="0%"/><stop stop-color="gray" stop-opacity=".12" offset="54%"/><stop stop-color="gray" stop-opacity=".1" offset="100%"/></linearGradient><linearGradient x1="50.021%" y1="0%" x2="50.021%" y2="100%" id="rocket-gradient-b"><stop stop-color="#E0E0E0" offset="0%"/><stop stop-color="#FCCC63" offset="31%"/><stop stop-color="#F55F44" offset="77%"/></linearGradient><linearGradient x1="50%" y1="0%" x2="50%" y2="100%" id="rocket-gradient-c"><stop stop-color="#E0E0E0" offset="0%"/><stop stop-color="#FCCC63" offset="31%"/><stop stop-color="#F55F44" offset="77%"/></linearGradient></defs><g fill-rule="nonzero" fill="none"><path d="M243.976 257.166A129.532 129.532 0 0 0 229.3 196.86c-4.603-8.745-8.804-14.172-12.04-17.514a8.601 8.601 0 0 0-9.844-1.893 8.923 8.923 0 0 0-3.446 2.22c-4.369 4.522-8.318 10.503-11.74 16.86a130.076 130.076 0 0 0-15.402 61.982v12.966h-8.326V120.706c0-31.594-7.077-62.761-20.963-90.402-6.573-13.1-12.577-21.241-17.18-26.242a11.912 11.912 0 0 0-17.902 0c-6.238 6.776-11.873 15.739-16.77 25.262-14.581 28.244-21.985 60.307-21.985 92.822v149.276H66.51v-13.594a130.043 130.043 0 0 0-15.403-61.94c-3.446-6.357-7.396-12.338-11.739-16.86a8.618 8.618 0 0 0-10.062-1.827l.302.16a9.022 9.022 0 0 0-2.809 1.96c-3.228 3.35-7.429 8.77-12.032 17.514A129.532 129.532 0 0 0 .092 257.14v225.313h25.692l-2.835 18.52v55.39h21.013v-55.39l-2.809-18.528h25.322v-205.21h7.195v204.322h20.517l-2.943 19.415v55.39h21.013v-55.39l-2.943-19.44h27.67l-2.96 19.44v55.39h21.012v-55.39l-2.943-19.44h16.384V277.26h8.327v205.52h6.75v-.31h22.32l-2.8 18.503v55.39h21.012v-55.39l-2.809-18.527h22.699v-225.28z" opacity=".7" fill="url(#rocket-gradient-a)"/><path fill="#535461" d="M49 490H29l3.574-24h12.852z"/><path d="M31.615 475.893h14.83l-.994-7.155H32.608z" opacity=".1" fill="#000"/><path fill="#535461" d="M219 490h-20l3.567-24h12.866z"/><path d="M202.067 475.893h14.683l-.983-7.155H203.05z" opacity=".1" fill="#000"/><path fill="#535461" d="M113 490H93l3.567-24h12.866z"/><path d="M95.699 475.893h14.838l-.994-7.155h-12.85z" opacity=".1" fill="#000"/><path fill="#535461" d="M154 490h-20l3.567-24h12.858z"/><path d="M136.108 475.893h14.684l-.992-7.155h-12.708z" opacity=".1" fill="#000"/><path fill="#535461" d="M49 267h142v6H49z"/><path d="M212.657 176.632A8.03 8.03 0 0 0 206.71 174a8.03 8.03 0 0 0-5.947 2.632c-4.14 4.409-7.887 10.233-11.155 16.426a129.47 129.47 0 0 0-14.607 60.341V472H238V252.477a129.007 129.007 0 0 0-13.918-58.782c-4.376-8.514-8.358-13.845-11.424-17.063zM32.334 176.632A8.03 8.03 0 0 1 38.281 174a8.03 8.03 0 0 1 5.947 2.632c4.15 4.409 7.888 10.233 11.164 16.426A129.57 129.57 0 0 1 69.999 253.4V472H7V252.477a129.007 129.007 0 0 1 13.918-58.782c4.368-8.514 8.35-13.845 11.415-17.063z" fill="#E0E0E0"/><path fill="#535461" d="M7 258l15 .074V276H7zM55 258l15 .074V276H55zM175 258l15 .074V276h-15zM223 258l15 .074V276h-15z"/><path d="M55.29 193.707c-3.265-6.19-6.99-12.01-11.126-16.415a7.96 7.96 0 0 0-9.486-1.784 8.464 8.464 0 0 1 2.395 1.784c4.127 4.405 7.861 10.226 11.118 16.415A129.65 129.65 0 0 1 62.75 254.01v218.446h7.1V254.018a129.758 129.758 0 0 0-14.56-60.31zM195.158 193.473c3.242-6.19 6.959-12.01 11.067-16.416a8.268 8.268 0 0 1 2.733-1.96 7.922 7.922 0 0 0-9.083 1.96c-4.117 4.405-7.833 10.226-11.075 16.416a130.255 130.255 0 0 0-14.492 60.302v218.48h6.359V253.792a130.154 130.154 0 0 1 14.491-60.32z" opacity=".1" fill="#000"/><path d="M39.274 544h-.548c-5.371 0-9.726-4.332-9.726-9.676V490h20v44.324a9.651 9.651 0 0 1-2.849 6.842A9.751 9.751 0 0 1 39.274 544z" fill="url(#rocket-gradient-b)"/><path d="M103.278 544h-.556c-5.37-.005-9.722-4.336-9.722-9.676V490h20v44.324c0 5.34-4.351 9.671-9.722 9.676zM144.27 544h-.565c-5.364-.014-9.705-4.342-9.705-9.676V490h20v44.324c0 5.344-4.356 9.676-9.73 9.676zM209.278 544h-.531a9.758 9.758 0 0 1-6.891-2.828 9.65 9.65 0 0 1-2.856-6.848V490h20v44.324c0 5.34-4.351 9.671-9.722 9.676z" fill="url(#rocket-gradient-c)"/><path d="M130.857 5.946a11.118 11.118 0 0 0-8.5-3.946c-3.278 0-6.39 1.445-8.5 3.946-5.887 6.607-11.27 15.334-15.98 24.623C84.032 58.102 77 89.356 77 121.047V472h90V119.639c0-30.794-6.729-61.202-19.884-88.114-6.182-12.768-11.877-20.708-16.259-25.579z" fill="#EEE"/><rect fill="#535461" x="97" y="45" width="47" height="21" rx="10.5"/><path d="M77.404 133.28h89.083v3.288H77.404z" opacity=".1" fill="#000"/></g>
</svg>
