<?xml version="1.0" encoding="UTF-8"?><svg viewBox="0 0 116 80" xmlns="http://www.w3.org/2000/svg"><path d="M115.657 56.522c-.377-3.074-2.087-5.457-4.699-7.326.646.46 1.192.851-.012-.01-1.625-1.159-.764-.544-.011-.007-6.44-4.587-14.842-3.568-21.86-1.019-2.814-4.586-2.936-8.087-1.315-13.093.21-.633.067-.984-.593-1.267-1.601-.684-3.908-.322-5.52.105-.555.146-.96.43-1.084.99-1.165 5.479-4.748 10.497-7.87 15.116-2.2-4.216-2.025-7.478-.546-11.868.18-.535.097-.82-.438-1.103-1.64-.849-4.158-.432-5.83.062-1.923.561-4.812 10.078-5.734 11.966-1.928 3.941-3.637 10.093-6.912 13.22-2.78-3.572 5.09-11.642 2.46-14.881-.89-1.096-2.5-1.068-3.523-.14.245-1.719.372-2.849-.072-4.307-.47-1.535-1.664-2.416-3.41-2.371-4.067.119-7.649 3.122-10.089 5.965-2.322 2.736-8.448 4.436-11.74 6.086C21.2 47.71 8.954 42.482 8.635 34.09c-.345-9.457 10.92-15.874 18.44-19.712 9.781-4.996 24.85-11.211 35.964-5.749 2.949 1.45 4.135 4.559 3.323 7.537-2.117 7.766-10.666 12.947-18.102 15.323-3.659 1.17-7.677 2.04-11.548 1.814-5.188-.303-9.227-3.44-9.781-3.635-.463-.088-.427.51-.304.828 5.382 14.109 32.636 3.77 39.764-3.474 3.432-3.485 5.517-6.862 6.407-12.18 1.044-6.232-3.532-10.132-7.006-11.74C48.184-5.051 23.84 5.625 10.526 16.508 4.748 21.232-2.48 28.736.836 36.61c3.6 8.544 14.63 12.924 21.81 18.15-5.81 2.886-13.077 5.872-16.84 11.284-2.153 3.103-2.917 6.409-1.314 9.936 2.841 6.23 13.172 3.53 17.53.784 3.994-2.515 6.682-5.891 7.842-10.22 1.007-3.754.8-7.654-.871-11.19l6.46-3.267c-1.74 5.215-2.508 11.752 1.103 16.464 1.447 1.884 5.202 1.96 6.738.07 1.993-2.473 3.314-5.571 4.634-8.408-.154 2.118-.42 4.52.31 6.365.84 2.118 2.741 2.552 4.7 1.208 5.993-4.114 9.807-15.515 12.76-22.161.802 2.899 1.688 5.547 3.154 8.22.362.656.318 1.08-.18 1.626-2.189 2.413-7.418 6.436-7.925 9.695-.119.762.387 1.491 1.285 1.666 3.519.702 7.42-.572 10.278-2.504 2.98-2.016 3.943-4.765 3.22-8.026-1.035-4.694 2.484-9.939 5.83-13.792.614 2.917 1.54 5.724 3.196 8.272-2.955 2.595-7.363 6.275-6.73 10.608.224 1.552 1.613 2.554 3.28 2.2 3.567-.75 6.648-2.285 8.898-5.004 2.039-2.453 1.309-5.13.42-7.827 5.394-1.54 10.851-1.848 16.232-.007 2.598.884 4.69 2.373 5.932 4.705 1.52 2.857.664 5.49-2.271 7.368-.743.476-1.257.866-1.006 1.072.251.206 1.107.478 3.002-.712 1.895-1.19 3.053-2.799 3.35-4.91a8.382 8.382 0 0 0-.006-1.752zM25.525 62.23c-.307 3.768-2.178 6.823-5.238 9.291-1.721 1.392-3.865 2.526-5.993 2.733-2.128.207-3.786-.33-3.927-2.538-.399-6.213 9.248-12.3 14.604-14.132.457 1.55.68 3.089.55 4.653l.004-.007zm23.3-16.374c-.883 5.042-3.352 14.09-7.303 17.703-.533.485-1.042.456-1.313-.174-2.338-5.437.83-16.648 7.476-18.38.781-.2 1.266.132 1.14.851zm15.889 18.479c1.903-2.025 3.804-4.049 5.71-6.085.236 2.264-3.97 6.771-5.71 6.085zm18.24-4c-.53.289-1.722.57-1.768.19-.335-2.732 2.67-5.622 4.534-6.976 1.007 2.563-.184 5.386-2.766 6.787z" /></svg>
