<?xml version="1.0" encoding="UTF-8"?><svg viewBox="0 0 80 80" xmlns="http://www.w3.org/2000/svg"><path d="M8.661 26.032l16.371 44.839C13.581 65.323 5.694 53.581 5.694 40c0-4.984 1.064-9.694 2.967-13.968zm54.5 12.242c0-4.242-1.516-7.177-2.822-9.468-1.742-2.822-3.371-5.225-3.371-8.048 0-3.161 2.387-6.097 5.758-6.097.145 0 .29.016.451.033C57.065 9.097 48.935 5.677 40 5.677c-11.984 0-22.532 6.146-28.677 15.468.806.032 1.564.049 2.21.049 3.58 0 9.144-.436 9.144-.436 1.855-.113 2.065 2.613.226 2.823 0 0-1.855.21-3.92.322l12.5 37.162L39 38.548l-5.339-14.645a69.927 69.927 0 0 1-3.596-.322c-1.855-.113-1.63-2.936.21-2.823 0 0 5.66.436 9.031.436 3.581 0 9.146-.436 9.146-.436 1.854-.113 2.064 2.613.225 2.823 0 0-1.854.21-3.919.322L57.161 60.79l3.42-11.435c1.451-4.742 2.58-8.145 2.58-11.08zM40.597 43l-10.29 29.92A34.353 34.353 0 0 0 40 74.322c4 0 7.823-.694 11.387-1.952a2.57 2.57 0 0 1-.242-.468L40.597 43zm29.516-19.468c.145 1.097.226 2.258.226 3.533 0 3.483-.645 7.387-2.613 12.29L57.242 69.66c10.21-5.951 17.064-17 17.064-29.661 0-5.968-1.516-11.58-4.193-16.468zM80 40c0 22.065-17.952 40-40 40C17.935 80 0 62.048 0 40 0 17.935 17.935 0 40 0c22.048 0 40 17.935 40 40zm-1.839 0C78.161 18.952 61.032 1.839 40 1.839 18.952 1.839 1.839 18.952 1.839 40c0 21.048 17.129 38.161 38.161 38.161 21.048 0 38.161-17.113 38.161-38.161z"/></svg>
